<svg width="16" height="16" viewBox="0 0 16 16" fill="none" xmlns="http://www.w3.org/2000/svg">
<g clip-path="url(#clip0_363_301)">
<mask id="mask0_363_301" style="mask-type:luminance" maskUnits="userSpaceOnUse" x="0" y="0" width="16" height="16">
<path d="M0 0H16V16H0V0Z" fill="white"/>
</mask>
<g mask="url(#mask0_363_301)">
<path d="M15.9338 2.65708L15.3584 11.1942L9.85736 0L15.9338 2.65708ZM12.1236 13.6961L7.96692 15.9372L3.81022 13.6961L4.65564 11.7601H11.2781L12.1236 13.6961ZM7.96692 4.24915L10.145 9.25275H5.78877L7.96692 4.24915ZM0.569471 11.1942L0 2.65708L6.07641 0L0.569471 11.1942Z" fill="url(#paint0_linear_363_301)"/>
<path d="M15.9338 2.65708L15.3584 11.1942L9.85736 0L15.9338 2.65708ZM12.1236 13.6961L7.96692 15.9372L3.81022 13.6961L4.65564 11.7601H11.2781L12.1236 13.6961ZM7.96692 4.24915L10.145 9.25275H5.78877L7.96692 4.24915ZM0.569471 11.1942L0 2.65708L6.07641 0L0.569471 11.1942Z" fill="url(#paint1_linear_363_301)"/>
</g>
</g>
<defs>
<linearGradient id="paint0_linear_363_301" x1="3.51634" y1="14.4915" x2="15.9286" y2="8.24914" gradientUnits="userSpaceOnUse">
<stop stop-color="#E40035"/>
<stop offset="0.24" stop-color="#F60A48"/>
<stop offset="0.352" stop-color="#F20755"/>
<stop offset="0.494" stop-color="#DC087D"/>
<stop offset="0.745" stop-color="#9717E7"/>
<stop offset="1" stop-color="#6C00F5"/>
</linearGradient>
<linearGradient id="paint1_linear_363_301" x1="2.9435" y1="1.92163" x2="10.7185" y2="11.3078" gradientUnits="userSpaceOnUse">
<stop stop-color="#FF31D9"/>
<stop offset="1" stop-color="#FF5BE1" stop-opacity="0"/>
</linearGradient>
<clipPath id="clip0_363_301">
<rect width="16" height="16" fill="white"/>
</clipPath>
</defs>
</svg>
