<svg width="70" height="70" viewBox="0 0 70 70" fill="none" xmlns="http://www.w3.org/2000/svg">
<path d="M0 35C0 15.67 15.67 0 35 0C54.33 0 70 15.67 70 35C70 54.33 54.33 70 35 70C15.67 70 0 54.33 0 35Z" fill="#D9D9D9"/>
<path d="M40.839 7.75831C40.823 9.26905 40.775 9.69858 40.4709 10.3947C39.5744 12.4979 37.9897 14.1271 34.1319 16.9709C31.1225 19.1777 29.8579 20.2738 29.0095 21.4142C28.1611 22.5103 27.953 23.0583 27.953 24.1691C27.953 25.9909 29.2176 27.9608 32.195 30.8045C33.2515 31.8117 34.308 32.7596 34.5641 32.9225L34.9963 33.2188L34.5321 32.4634C34.26 32.0487 33.6517 31.2044 33.1875 30.5676C30.7703 27.3831 30.2261 25.6354 30.9784 23.6507C31.5707 22.0955 32.7072 20.8366 35.4765 18.6742C39.3823 15.6231 41.2712 13.2088 41.8795 10.4539C42.1837 9.09132 41.8155 7.13624 41.0951 6.24757C40.855 5.96615 40.839 6.05502 40.839 7.75831Z" fill="#E42F2F"/>
<path d="M45.081 16.6746C42.952 17.3856 39.9266 18.8223 38.598 19.7554C37.2053 20.7329 36.0528 22.0363 35.6206 23.1175C35.3485 23.784 35.3004 24.1691 35.3485 25.1911C35.4445 26.7759 35.8287 27.6497 37.2053 29.3234C37.7656 30.0047 38.3259 30.7897 38.4539 31.0563C38.9021 32.0487 38.694 33.1891 37.8296 34.3592L37.3494 35.0109L38.1338 34.5073C40.1667 33.2188 41.2872 31.6636 41.2872 30.1528C41.2872 29.1457 41.1272 28.7754 39.8786 27.1165C39.4144 26.5093 38.8701 25.7095 38.678 25.3392C38.1978 24.4653 38.1818 23.2656 38.646 22.4362C39.4144 21.044 41.8475 19.0889 45.081 17.2671C46.7138 16.334 47.0019 16.1563 46.7618 16.1563C46.6658 16.1711 45.9134 16.3932 45.081 16.6746Z" fill="#E42F2F"/>
<path d="M49.0829 33.3669C48.7787 33.4409 48.4106 33.6038 48.2825 33.7223C48.0744 33.9297 48.0904 33.9297 48.5226 33.826C50.8437 33.2484 53.0847 34.6554 53.0847 36.7142C53.0847 38.3879 51.0998 40.5947 48.1865 42.1795C47.4021 42.6091 46.8418 42.9645 46.9539 42.9645C47.258 42.9645 49.9153 42.061 50.7637 41.6759C51.2119 41.4686 52.0122 41.0094 52.5725 40.6392C55.9501 38.4323 56.1902 35.1442 53.1168 33.6779C52.2043 33.2484 51.9642 33.1891 50.8757 33.2039C50.1874 33.2039 49.387 33.278 49.0829 33.3669Z" fill="#265EEF" fill-opacity="0.81"/>
<path d="M25.6479 33.8704C24.0952 34.137 21.2619 34.9961 20.1894 35.5293C19.5651 35.8403 19.389 36.0033 19.389 36.2995C19.389 37.4251 23.9671 38.0176 31.8268 37.8843C37.2534 37.8102 40.9991 37.4399 43.8324 36.729C44.5528 36.5513 46.4897 35.4997 45.8814 35.6182C45.1931 35.7663 40.759 36.2847 38.9982 36.4476C33.6357 36.9216 25.9681 36.9067 24.1272 36.4032C22.2383 35.8996 23.1347 35.0998 26.7524 34.063C27.985 33.7075 28.0971 33.6483 27.5528 33.6631C27.2006 33.6631 26.3362 33.752 25.6479 33.8704Z" fill="#265EEF" fill-opacity="0.81"/>
<path d="M25.1517 39.9134C22.0622 41.2612 23.9671 42.7423 29.4737 43.2607C31.9549 43.4977 36.485 43.3644 39.2383 42.9793C41.3032 42.6831 44.0085 42.1499 44.3287 41.9722C44.4087 41.9277 44.2006 41.75 43.8644 41.5871C43.5283 41.439 43.0801 41.1724 42.888 41.0094C42.5518 40.7132 42.5358 40.7132 40.4869 41.0242C37.1413 41.5278 34.6761 41.6759 31.6347 41.5723C26.5123 41.4093 25.1677 41.0242 25.9361 39.9282C26.2562 39.4691 26.1602 39.4691 25.1517 39.9134Z" fill="#265EEF" fill-opacity="0.81"/>
<path d="M26.5604 45.3936C22.9907 46.9339 27.3127 49.0371 34.0679 49.0371C37.2213 49.0371 40.5989 48.5039 43.0321 47.6004L43.6243 47.3783L42.1677 46.7118L40.695 46.0601L39.2543 46.2822C35.6046 46.8451 33.1074 46.9043 29.5538 46.4896C27.6489 46.2674 26.9766 45.9268 27.3127 45.3343C27.5208 44.964 27.5688 44.964 26.5604 45.3936Z" fill="#265EEF" fill-opacity="0.81"/>
<path d="M19.469 49.0519C16.8438 49.6888 14.6668 50.9626 14.8909 51.7476C15.115 52.6066 18.5406 53.2287 25.9361 53.7767C28.5613 53.9692 36.405 53.9692 38.9181 53.7767C45.6253 53.2583 51.3399 51.9401 52.5405 50.6219C53.0207 50.0887 53.0207 49.911 52.5405 49.4963L52.1723 49.1704L52.2524 49.5555C52.6365 51.4069 45.145 52.6362 33.2355 52.651C26.1922 52.6659 22.3344 52.3548 19.6931 51.5402C18.3965 51.1551 18.0604 50.9181 18.2685 50.5627C18.5566 50.1183 20.4455 49.3333 21.9662 49.0371L23.3909 48.7557H22.0302C21.1818 48.7557 20.2214 48.8742 19.469 49.0519Z" fill="#265EEF" fill-opacity="0.81"/>
<path d="M55.0056 52.0734C53.693 53.5397 46.5697 55.0801 38.8381 55.5688C35.3004 55.791 27.6809 55.6577 24.8475 55.3467C23.711 55.2134 22.7506 55.1245 22.7185 55.1689C22.6065 55.2726 24.5594 55.6873 26.1922 55.9095C33.7797 56.9315 45.7693 56.3835 51.0038 54.7987C53.2448 54.1173 54.9576 53.0509 55.1977 52.1771C55.3098 51.792 55.2778 51.7772 55.0056 52.0734Z" fill="#265EEF" fill-opacity="0.81"/>
</svg>
