<svg width="16" height="16" viewBox="0 0 16 16" fill="none" xmlns="http://www.w3.org/2000/svg">
<g clip-path="url(#clip0_367_781)">
<path d="M0 8C0 3.58172 3.58172 0 8 0C12.4183 0 16 3.58172 16 8C16 12.4183 12.4183 16 8 16C3.58172 16 0 12.4183 0 8Z" fill="#E4E4E4"/>
<path d="M9.33465 1.77335C9.33099 2.11866 9.32001 2.21684 9.25049 2.37595C9.0456 2.85668 8.68337 3.22908 7.80159 3.87908C7.11372 4.3835 6.82467 4.63402 6.63075 4.8947C6.43683 5.14522 6.38927 5.27048 6.38927 5.52439C6.38927 5.9408 6.67832 6.39106 7.35886 7.04106C7.60035 7.27126 7.84183 7.48793 7.90037 7.52517L7.99916 7.59288L7.89306 7.42022C7.83086 7.32543 7.69182 7.13246 7.58571 6.98689C7.03323 6.25903 6.90883 5.85955 7.08079 5.4059C7.21617 5.05043 7.47595 4.76267 8.10893 4.2684C9.00169 3.571 9.43343 3.01918 9.57247 2.38949C9.64199 2.07804 9.55784 1.63116 9.39319 1.42804C9.33831 1.36371 9.33465 1.38402 9.33465 1.77335Z" fill="#E42F2F"/>
<path d="M10.3042 3.81136C9.81759 3.97386 9.12607 4.30224 8.82239 4.51553C8.50407 4.73896 8.24063 5.03688 8.14184 5.28402C8.07964 5.43636 8.06866 5.52438 8.07964 5.75797C8.10159 6.12021 8.18941 6.31995 8.50407 6.7025C8.63213 6.85823 8.76019 7.03766 8.78946 7.0986C8.8919 7.32542 8.84434 7.5861 8.64676 7.85355L8.537 8.0025L8.71628 7.8874C9.18095 7.59287 9.43707 7.2374 9.43707 6.89209C9.43707 6.66188 9.40049 6.57724 9.11509 6.19808C9.00899 6.05928 8.88459 5.87646 8.84068 5.79183C8.73091 5.59209 8.72726 5.31787 8.83336 5.12829C9.00899 4.81006 9.56513 4.36318 10.3042 3.94678C10.6774 3.73349 10.7433 3.69287 10.6884 3.69287C10.6665 3.69625 10.4945 3.74704 10.3042 3.81136Z" fill="#E42F2F"/>
<path d="M11.2189 7.62668C11.1494 7.64361 11.0653 7.68085 11.036 7.70793C10.9884 7.75533 10.9921 7.75533 11.0909 7.73163C11.6214 7.5996 12.1337 7.92121 12.1337 8.39179C12.1337 8.77434 11.68 9.27877 11.014 9.64101C10.8348 9.73918 10.7067 9.82043 10.7323 9.82043C10.8018 9.82043 11.4092 9.61392 11.6031 9.5259C11.7056 9.47851 11.8885 9.37356 12.0166 9.28892C12.7886 8.78449 12.8435 8.03293 12.141 7.69778C11.9324 7.5996 11.8775 7.58606 11.6287 7.58944C11.4714 7.58944 11.2885 7.60637 11.2189 7.62668Z" fill="#265EEF" fill-opacity="0.81"/>
<path d="M5.86237 7.74183C5.50746 7.80276 4.85985 7.99912 4.6147 8.12099C4.47201 8.19209 4.43176 8.22933 4.43176 8.29703C4.43176 8.55433 5.47819 8.68974 7.27469 8.65927C8.51504 8.64235 9.37121 8.55771 10.0188 8.39521C10.1835 8.35459 10.6262 8.11422 10.4872 8.14131C10.3298 8.17516 9.31633 8.29365 8.91386 8.33089C7.68814 8.43922 5.93555 8.43584 5.51478 8.32073C5.08304 8.20563 5.28793 8.02282 6.11483 7.78584C6.39657 7.70459 6.42218 7.69105 6.29778 7.69443C6.21728 7.69443 6.0197 7.71474 5.86237 7.74183Z" fill="#265EEF" fill-opacity="0.81"/>
<path d="M5.74896 9.12305C5.0428 9.43113 5.4782 9.76967 6.73685 9.88816C7.30397 9.94233 8.33943 9.91186 8.96875 9.82384C9.44074 9.75613 10.0591 9.63425 10.1323 9.59363C10.1506 9.58347 10.103 9.54285 10.0262 9.50561C9.94932 9.47175 9.84688 9.41082 9.80297 9.37358C9.72613 9.30587 9.72247 9.30587 9.25414 9.37696C8.48944 9.49207 7.92598 9.52592 7.23079 9.50222C6.05996 9.46498 5.75262 9.37696 5.92824 9.12644C6.00142 9.02149 5.97947 9.02149 5.74896 9.12305Z" fill="#265EEF" fill-opacity="0.81"/>
<path d="M6.07095 10.3757C5.25503 10.7278 6.24292 11.2085 7.78695 11.2085C8.50775 11.2085 9.27977 11.0866 9.83591 10.8801L9.97129 10.8293L9.63833 10.677L9.30172 10.528L8.97242 10.5788C8.1382 10.7074 7.56742 10.721 6.75516 10.6262C6.31975 10.5754 6.16608 10.4975 6.24292 10.3621C6.29048 10.2775 6.30146 10.2775 6.07095 10.3757Z" fill="#265EEF" fill-opacity="0.81"/>
<path d="M4.45006 11.2119C3.85001 11.3574 3.35241 11.6486 3.40363 11.828C3.45486 12.0244 4.23785 12.1666 5.92824 12.2918C6.52829 12.3358 8.32113 12.3358 8.89557 12.2918C10.4286 12.1733 11.7348 11.872 12.0093 11.5707C12.119 11.4488 12.119 11.4082 12.0093 11.3134L11.9251 11.239L11.9434 11.327C12.0312 11.7502 10.3189 12.0311 7.59668 12.0345C5.98678 12.0379 5.105 11.9668 4.50129 11.7806C4.20492 11.6926 4.12809 11.6384 4.17565 11.5572C4.24151 11.4556 4.67326 11.2762 5.02085 11.2085L5.34648 11.1442H5.03548C4.84156 11.1442 4.62203 11.1712 4.45006 11.2119Z" fill="#265EEF" fill-opacity="0.81"/>
<path d="M12.5727 11.9025C12.2727 12.2376 10.6445 12.5897 8.87728 12.7015C8.06867 12.7522 6.32705 12.7218 5.67944 12.6507C5.41966 12.6202 5.20013 12.5999 5.19281 12.61C5.1672 12.6337 5.61358 12.7285 5.98678 12.7793C7.72108 13.0129 10.4616 12.8876 11.658 12.5254C12.1702 12.3697 12.5617 12.1259 12.6166 11.9262C12.6422 11.8382 12.6349 11.8348 12.5727 11.9025Z" fill="#265EEF" fill-opacity="0.81"/>
</g>
<defs>
<clipPath id="clip0_367_781">
<rect width="16" height="16" fill="white"/>
</clipPath>
</defs>
</svg>
