<svg width="16" height="16" viewBox="0 0 16 16" fill="none" xmlns="http://www.w3.org/2000/svg">
<g clip-path="url(#clip0_367_802)">
<path d="M0 0C5.28 0 10.56 0 16 0C16 5.28 16 10.56 16 16C10.72 16 5.44 16 0 16C0 10.72 0 5.44 0 0Z" fill="#F0DB4F"/>
<path d="M13.6523 7.66601C13.6961 7.70352 13.7391 7.74199 13.7812 7.78125C13.8072 7.80473 13.8331 7.82822 13.8599 7.85242C14.046 8.02881 14.185 8.21542 14.3125 8.4375C14.2204 8.53627 14.1251 8.60767 14.011 8.67969C13.977 8.70128 13.943 8.72287 13.908 8.74512C13.8722 8.76758 13.8365 8.79004 13.8008 8.8125C13.7653 8.83494 13.7298 8.85741 13.6943 8.87988C13.6287 8.92147 13.563 8.96298 13.4973 9.00439C13.4324 9.04579 13.3685 9.0886 13.3052 9.13233C13.2188 9.1875 13.2188 9.1875 13.1509 9.18738C13.077 9.14714 13.0411 9.10144 12.9922 9.0332C12.9678 8.99991 12.9678 8.99991 12.9429 8.96594C12.9062 8.90625 12.875 8.87988 12.875 8.87988C12.875 8.87988 12.8242 8.82142 12.8059 8.8125C12.7227 8.74512 12.6649 8.71426 12.5724 8.66003C12.3779 8.56592 12.1289 8.56038 11.9218 8.61401C11.7515 8.68143 11.6276 8.78057 11.5312 8.9375C11.4675 9.1269 11.4665 9.35835 11.5488 9.54101C11.7757 9.92276 12.2922 10.0716 12.6773 10.242C13.68 10.6858 13.68 10.6858 14.0625 11.0312C14.0888 11.0543 14.115 11.0773 14.1421 11.101C14.5463 11.4764 14.7341 11.9388 14.7574 12.4835C14.7706 13.0323 14.6724 13.5502 14.3027 13.9785C13.7675 14.535 13.0665 14.742 12.3099 14.7589C11.9867 14.762 11.6888 14.7351 11.375 14.6562C11.3409 14.6479 11.3068 14.6396 11.2716 14.631C10.8531 14.5157 10.4816 14.3175 10.1562 14.0312C10.1188 14.0033 10.1188 14.0033 10.0806 13.9747C9.98118 13.8903 9.90557 13.7963 9.82617 13.6934C9.80421 13.6657 9.80421 13.6657 9.7818 13.6374C9.53125 13.3161 9.53125 13.3161 9.53125 13.1875C9.64954 13.1197 9.76786 13.0519 9.88621 12.9842C9.9263 12.9612 9.96639 12.9382 10.0065 12.9153C10.2528 12.774 10.5 12.6347 10.75 12.5C10.7697 12.5268 10.7893 12.5536 10.8096 12.5812C11.0761 12.9395 11.3879 13.2871 11.8533 13.3672C12.2626 13.4052 12.6081 13.3787 12.9844 13.1973C13.1494 13.0446 13.2278 12.8837 13.2402 12.6582C13.2298 12.4537 13.1673 12.3089 13.0312 12.1562C12.6968 11.8709 12.2203 11.7093 11.8194 11.5395C11.1998 11.2761 10.6135 10.9652 10.25 10.375C10.235 10.3507 10.22 10.3265 10.2046 10.3015C9.93104 9.8088 9.89177 9.21178 10.0363 8.67375C10.1905 8.15774 10.5396 7.76289 11.0085 7.50659C11.8131 7.11863 12.9124 7.11787 13.6523 7.66601Z" fill="#323330"/>
<path d="M7.21875 7.34375C7.71375 7.34375 8.20875 7.34375 8.71875 7.34375C8.72158 8.05115 8.72388 8.75854 8.72523 9.46594C8.72587 9.79445 8.72674 10.123 8.72818 10.4515C8.72943 10.738 8.73023 11.0246 8.73051 11.3111C8.73067 11.4627 8.73105 11.6142 8.73197 11.7657C8.73282 11.9088 8.73307 12.0518 8.73289 12.1949C8.73292 12.247 8.73317 12.2991 8.73365 12.3511C8.73982 13.0478 8.5811 13.696 8.09375 14.2188C7.55068 14.6737 6.84787 14.8004 6.15625 14.75C5.8465 14.7181 5.56083 14.6392 5.28125 14.5C5.25084 14.4853 5.22042 14.4707 5.18909 14.4556C4.76459 14.2314 4.43931 13.8604 4.21875 13.4375C4.21875 13.4066 4.21875 13.3756 4.21875 13.3438C4.29124 13.2902 4.29124 13.2902 4.39233 13.2318C4.41032 13.2213 4.42831 13.2108 4.44684 13.1999C4.50474 13.1662 4.5629 13.1329 4.62109 13.0996C4.65912 13.0776 4.69712 13.0555 4.73511 13.0334C4.79107 13.0008 4.84705 12.9683 4.90318 12.9361C5.0417 12.8565 5.17787 12.7735 5.313 12.6883C5.375 12.6562 5.375 12.6562 5.46875 12.6562C5.51697 12.7245 5.55949 12.7914 5.60156 12.8633C5.73307 13.0771 5.87143 13.2682 6.11658 13.3601C6.38968 13.4175 6.66514 13.409 6.90771 13.2648C7.08575 13.1305 7.1446 12.9294 7.1875 12.7188C7.20132 12.5424 7.2012 12.3666 7.20101 12.1899C7.20129 12.1369 7.20162 12.0839 7.20198 12.0309C7.20283 11.8878 7.20313 11.7448 7.20332 11.6017C7.20361 11.4519 7.20443 11.3021 7.20519 11.1523C7.20655 10.8689 7.20745 10.5856 7.20817 10.3023C7.20902 9.97961 7.21039 9.6569 7.2118 9.3342C7.2147 8.67072 7.21687 8.00724 7.21875 7.34375Z" fill="#323330"/>
</g>
<defs>
<clipPath id="clip0_367_802">
<rect width="16" height="16" fill="white"/>
</clipPath>
</defs>
</svg>
