<svg width="16" height="16" viewBox="0 0 16 16" fill="none" xmlns="http://www.w3.org/2000/svg">
<g clip-path="url(#clip0_367_764)">
<path d="M9.16611 0.0251919C9.13792 0.0440858 9.15358 0.0755757 9.22562 0.144853C9.27886 0.195237 9.36029 0.299154 9.40414 0.377878C9.47617 0.500689 9.4887 0.554222 9.4887 0.771502C9.4887 0.991931 9.47304 1.05491 9.37908 1.25959C9.24127 1.56505 9.23188 1.82011 9.34776 2.07833L9.42606 2.25153L9.44485 1.96812C9.46991 1.53041 9.55134 1.4076 10.1433 0.903759C10.3375 0.736863 10.35 0.689628 10.2592 0.488093C10.1339 0.204684 9.76744 0 9.401 0C9.29452 0 9.18803 0.0125959 9.16611 0.0251919Z" fill="#E0234E"/>
<path d="M10.7415 0.340089C10.6851 0.702223 10.5692 0.862821 10.1151 1.19976C9.67035 1.52726 9.55134 1.78233 9.62024 2.25782C9.63903 2.39323 9.65156 2.50659 9.64843 2.51289C9.64216 2.51604 9.53568 2.47195 9.40414 2.41212C7.83504 1.69415 5.3702 1.64062 3.97336 2.29876C3.58186 2.4814 3.36889 2.64515 2.8208 3.17733C2.08166 3.8953 1.7716 4.08423 1.15774 4.16926C0.788174 4.21964 0.606521 4.29837 0.387286 4.49675C0.0208487 4.8274 -0.095033 5.22732 0.0803555 5.57685C0.142994 5.70281 0.337174 5.89175 0.484376 5.96733C0.55641 6.00512 0.606521 6.07439 0.672292 6.2224C0.785042 6.47432 1.0262 6.73253 1.23604 6.8333L1.39264 6.90573V7.1293C1.39264 7.39382 1.42396 7.46625 1.50226 7.40012C1.53358 7.37493 1.61187 7.27416 1.67764 7.17339C1.74655 7.07262 1.80605 6.99075 1.80919 6.99075C1.81545 6.99075 1.81232 7.1293 1.80605 7.2962C1.79666 7.65204 1.82171 7.73076 1.92507 7.63629C1.95952 7.6048 2.06914 7.4694 2.16309 7.33399L2.33848 7.09152L2.59217 7.05058C2.7519 7.02224 3.09954 7.00649 3.5067 7.00649C4.23331 7.00649 4.52771 7.05058 5.08519 7.24897C6.35676 7.69927 7.45607 8.77623 7.95405 10.061C8.0668 10.3539 8.22026 10.9648 8.22026 11.1317V11.2261L8.15449 11.1159C8.01669 10.8892 7.69097 10.6751 7.47799 10.6751C7.38404 10.6751 7.36838 10.6908 7.2337 10.9553C7.11156 11.1946 6.7827 11.6198 6.7232 11.6198C6.71067 11.6198 6.69814 11.4623 6.69501 11.2671C6.69188 11.075 6.67622 10.9049 6.66056 10.8892C6.6449 10.8734 6.61671 10.9207 6.59479 10.9963C6.54154 11.1758 6.3411 11.5694 6.21582 11.7394C6.11873 11.8748 6.11873 11.8748 5.97153 11.8528C5.62702 11.8024 5.31069 11.6261 5.16349 11.3993C5.06014 11.2419 5.04761 11.0152 5.13217 10.7632C5.20734 10.5428 5.17915 10.3822 5.04761 10.2846C4.97244 10.2311 4.91294 10.2185 4.7031 10.2185C4.38677 10.2216 4.20825 10.2972 3.97336 10.5334C3.7134 10.7947 3.69461 10.8451 3.69461 11.3206C3.69461 11.6701 3.70714 11.7615 3.76665 11.9347C3.87 12.2181 4.03286 12.4794 4.24583 12.6936L4.42749 12.8762L4.32726 12.8951C4.10803 12.9392 3.89819 13.0085 3.89819 13.0368C3.89819 13.0777 4.26149 13.2604 4.54963 13.3643C5.50174 13.7075 6.67622 13.6414 7.6158 13.1911C8.57104 12.7345 9.40727 11.6607 9.67348 10.5523C9.75491 10.2122 9.76431 10.2248 9.82068 10.738C9.90211 11.5001 9.69227 12.429 9.27573 13.125C9.00638 13.5753 8.59296 14.035 8.23279 14.2838L8.05427 14.4066L8.19208 14.4161C8.37999 14.4318 8.82473 14.3216 9.46991 14.1043C9.77057 14.0035 10.0211 13.9217 10.0243 13.928C10.0399 13.9437 9.74239 14.2901 9.46678 14.5735C8.92182 15.1372 8.37686 15.5465 7.70349 15.8992L7.51558 16L7.73481 15.9811C7.85696 15.9685 8.12317 15.9276 8.32988 15.8866C10.09 15.534 11.4963 14.583 12.5486 13.0211C12.6551 12.8636 12.749 12.7251 12.7616 12.7125C12.7741 12.6967 12.7365 12.8888 12.677 13.1376C12.5204 13.8052 12.3388 14.2334 11.9347 14.9073C11.822 15.0962 11.7312 15.2568 11.7374 15.26C11.7437 15.2663 11.8533 15.1907 11.9849 15.0899C13.2596 14.1264 14.03 12.977 14.409 11.4686C14.4685 11.2356 14.5155 11.012 14.5155 10.9679C14.5155 10.7884 14.575 10.9522 14.6282 11.2797C14.6689 11.5316 14.6846 11.8056 14.6846 12.2244V12.8132L14.8036 12.6495C14.9853 12.3944 15.2797 11.8559 15.4331 11.4938C15.8152 10.5963 15.9969 9.69888 16 8.70695C16 7.33714 15.6398 6.0555 14.8882 4.74552C14.6313 4.30151 13.9141 3.30014 13.7982 3.23086C13.7795 3.21826 13.7575 3.26235 13.7481 3.32848C13.6354 4.0244 13.3535 4.57233 12.8618 5.04468C12.4703 5.4194 12.0036 5.66503 11.4712 5.77524C11.1799 5.83507 10.6632 5.83822 10.3719 5.78154C10.1495 5.73745 10.0681 5.69966 10.1965 5.69966C10.2404 5.69966 10.3938 5.66817 10.5379 5.63354C11.4211 5.40996 12.0851 4.87463 12.439 4.10628C12.9432 3.00413 12.677 1.65637 11.7907 0.843927C11.5558 0.626647 11.1831 0.387324 10.9231 0.286556L10.7603 0.223577L10.7415 0.340089Z" fill="#E0234E"/>
</g>
<defs>
<clipPath id="clip0_367_764">
<rect width="16" height="16" fill="white"/>
</clipPath>
</defs>
</svg>
