<svg width="16" height="16" viewBox="0 0 16 16" fill="none" xmlns="http://www.w3.org/2000/svg">
<g clip-path="url(#clip0_367_822)">
<path d="M10.105 15.7354L1.60689 12.7963L0 6.81583L5.95925 0.305664L14.4252 3.12511L16 8.98602L10.105 15.7354Z" fill="black"/>
<path d="M8.0321 16L0.569901 11.0388V4.83721L8.0321 0L15.4944 4.83721V10.9147L8.0321 16Z" fill="white"/>
<path d="M10.614 5.1876C10.601 5.19128 10.5899 5.20599 10.5899 5.21702C10.5899 5.22989 10.5657 5.26483 10.5378 5.29793C10.508 5.33102 10.4634 5.38618 10.4392 5.42112C10.415 5.45789 10.389 5.48731 10.3815 5.48731C10.3722 5.48731 10.3666 5.49651 10.3666 5.5057C10.3666 5.51673 10.3462 5.54615 10.3201 5.57189C10.2941 5.59764 10.2736 5.62338 10.2736 5.63073C10.2736 5.63809 10.2457 5.67302 10.2123 5.7098C10.1788 5.74657 10.1304 5.80541 10.1062 5.84219C10.0802 5.87896 10.0541 5.91022 10.0467 5.91022C10.0374 5.91022 10.0318 5.91941 10.0318 5.9286C10.0318 5.93964 10.0114 5.96906 9.9853 5.9948C9.9593 6.02054 9.9388 6.04628 9.9388 6.05364C9.9388 6.06099 9.909 6.09777 9.8737 6.13822C9.8384 6.17683 9.8086 6.21361 9.8086 6.22096C9.8086 6.22832 9.7751 6.27061 9.7342 6.31474C9.6933 6.35886 9.6598 6.40115 9.6598 6.40851C9.6598 6.41403 9.6449 6.43609 9.6263 6.45815C9.6077 6.47838 9.5761 6.51883 9.5556 6.54641C9.537 6.57399 9.5017 6.61628 9.4793 6.64019C9.4552 6.66409 9.4366 6.68799 9.4366 6.69351C9.4366 6.70454 9.3473 6.82406 9.3026 6.8737C9.284 6.89393 9.2692 6.91599 9.2692 6.92335C9.2692 6.93254 9.2487 6.95829 9.2226 6.98403C9.1966 7.00977 9.1761 7.03919 9.1761 7.05022C9.1761 7.06125 9.1464 7.1017 9.111 7.13848C9.0757 7.17525 9.0459 7.21387 9.0459 7.22122C9.0459 7.23042 9.0162 7.27271 8.9808 7.315C8.9455 7.35913 8.9157 7.40142 8.9157 7.40877C8.9157 7.41613 8.9008 7.43635 8.8822 7.4529C8.8636 7.46945 8.832 7.5099 8.8134 7.54116C8.793 7.57425 8.7706 7.60184 8.7632 7.60184C8.7557 7.60184 8.7483 7.61471 8.7483 7.62942C8.7483 7.64413 8.7409 7.657 8.7334 7.657C8.726 7.657 8.7055 7.67906 8.6888 7.70664C8.6702 7.73606 8.6348 7.78203 8.6088 7.81329C8.5623 7.86477 8.5586 7.86661 8.54 7.83351C8.5288 7.81513 8.5046 7.78387 8.486 7.76548C8.4656 7.74526 8.4507 7.72135 8.4507 7.71216C8.4507 7.70113 8.4432 7.69377 8.4321 7.69377C8.4228 7.69377 8.4135 7.68274 8.4135 7.66987C8.4135 7.657 8.393 7.62574 8.367 7.59816C8.3409 7.57058 8.3205 7.543 8.3205 7.53748C8.3205 7.52277 8.2479 7.42164 8.1958 7.3628C8.1717 7.3389 8.1531 7.30764 8.1531 7.29477C8.1531 7.2819 8.1456 7.27087 8.1382 7.27087C8.1289 7.27087 8.1066 7.24145 8.0861 7.20651C8.0675 7.17158 8.0452 7.14216 8.0377 7.14216C8.0284 7.14216 8.0228 7.12929 8.0228 7.11458C8.0228 7.09987 8.0173 7.087 8.008 7.087C8.0005 7.087 7.9503 7.0208 7.8945 6.9399C7.8406 6.859 7.7885 6.7928 7.7792 6.7928C7.7699 6.7928 7.7624 6.78361 7.7624 6.77258C7.7624 6.75235 7.6564 6.61261 7.6136 6.57767C7.5783 6.55009 7.4276 6.54641 7.4276 6.57399C7.4276 6.58503 7.4908 6.68248 7.5671 6.78912C7.6434 6.89761 7.7159 7.00058 7.7289 7.0208C7.742 7.03919 7.7847 7.09435 7.8238 7.14216C7.861 7.18996 7.8926 7.23961 7.8926 7.25064C7.8926 7.26167 7.9001 7.27087 7.9094 7.27087C7.9187 7.27087 7.9317 7.28558 7.9373 7.30213C7.9429 7.32051 7.9689 7.35729 7.9931 7.38671C8.0173 7.41429 8.0563 7.46577 8.0805 7.50071C8.1047 7.53564 8.1307 7.56506 8.14 7.56506C8.1475 7.56506 8.1531 7.57425 8.1531 7.58529C8.1531 7.60735 8.2833 7.79122 8.3056 7.80042C8.3149 7.80409 8.3205 7.8188 8.3205 7.83351C8.3205 7.84822 8.3279 7.85926 8.3372 7.85926C8.3465 7.85926 8.3595 7.87397 8.3651 7.89235C8.3726 7.91074 8.393 7.94384 8.4135 7.9659L8.4507 8.00635L8.4005 8.08175C8.3707 8.12404 8.3409 8.17184 8.3298 8.18655C8.3075 8.21964 8.2684 8.26929 8.2237 8.32261C8.2051 8.34468 8.1903 8.36674 8.1903 8.37226C8.1903 8.37777 8.1642 8.41272 8.1345 8.44765C8.1047 8.48259 8.0787 8.51752 8.0787 8.52487C8.0787 8.53223 8.0675 8.54878 8.0563 8.56166C8.0433 8.57453 8.008 8.61864 7.9782 8.6591C7.9466 8.69955 7.9187 8.73633 7.9131 8.74185C7.9057 8.74737 7.8908 8.7731 7.8778 8.79884C7.8629 8.82642 7.8313 8.86871 7.8071 8.89445C7.7829 8.92019 7.7624 8.95146 7.7624 8.96066C7.7624 8.97169 7.7513 8.98639 7.7401 8.99374C7.7271 9.0011 7.6787 9.06178 7.6341 9.12797C7.5876 9.19416 7.502 9.31184 7.4425 9.38907C7.383 9.46813 7.3346 9.53618 7.3346 9.54169C7.3346 9.54721 7.3848 9.55087 7.4462 9.55087C7.5076 9.55087 7.5578 9.54536 7.5578 9.53616C7.5578 9.52881 7.5801 9.49939 7.6062 9.46813C7.6322 9.43871 7.6694 9.38723 7.6899 9.35413C7.7103 9.32103 7.7364 9.29346 7.7457 9.29346C7.755 9.29346 7.7624 9.28242 7.7624 9.26771C7.7624 9.253 7.7922 9.21071 7.8275 9.1721C7.8629 9.13532 7.8926 9.09671 7.8926 9.08752C7.8926 9.07097 7.9187 9.0342 8.0042 8.93123C8.0154 8.91836 8.0228 8.89997 8.0228 8.88894C8.0228 8.87974 8.0284 8.87055 8.0377 8.87055C8.0452 8.87055 8.0768 8.83195 8.1066 8.78782C8.1382 8.74185 8.1679 8.70507 8.1772 8.70507C8.1847 8.70507 8.1903 8.69403 8.1903 8.68116C8.1903 8.67013 8.22 8.62601 8.2554 8.58556C8.2907 8.54511 8.3205 8.50464 8.3205 8.49729C8.3205 8.4881 8.3502 8.44581 8.3856 8.40352C8.4209 8.35939 8.4507 8.31526 8.4507 8.30239C8.4507 8.29135 8.4581 8.28216 8.4656 8.28216C8.4749 8.28216 8.4935 8.26194 8.5065 8.23619C8.5325 8.18839 8.6181 8.17001 8.6181 8.21414C8.6181 8.22701 8.6386 8.25826 8.6646 8.28584C8.6906 8.31342 8.7111 8.34468 8.7111 8.35571C8.7111 8.3649 8.7204 8.3741 8.7297 8.3741C8.7409 8.3741 8.7483 8.38329 8.7483 8.39432C8.7483 8.40535 8.7781 8.44948 8.8134 8.49177C8.8488 8.5359 8.8785 8.58004 8.8785 8.59291C8.8785 8.60395 8.886 8.61313 8.8934 8.61313C8.9008 8.61313 8.9232 8.64072 8.9436 8.67198C8.9622 8.70507 8.9827 8.73633 8.9901 8.74185C8.9957 8.74737 9.0329 8.797 9.0738 8.85216C9.1148 8.90732 9.1538 8.95513 9.1613 8.95881C9.1706 8.96249 9.1761 8.97536 9.1761 8.98639C9.1761 8.99926 9.2059 9.04155 9.2412 9.082C9.2766 9.12245 9.3064 9.16107 9.3064 9.16842C9.3064 9.18129 9.3194 9.19784 9.4049 9.29713C9.4217 9.3192 9.4366 9.34126 9.4366 9.34678C9.4366 9.35229 9.4552 9.37987 9.4793 9.40745C9.5017 9.4332 9.537 9.47733 9.5556 9.50307C9.5854 9.54352 9.604 9.55087 9.6895 9.55087C9.7937 9.55087 9.8105 9.53617 9.7621 9.48837C9.7472 9.47366 9.7342 9.45343 9.7342 9.4424C9.7342 9.43137 9.7286 9.42216 9.7193 9.42216C9.7119 9.42216 9.6895 9.39274 9.6709 9.35781C9.6505 9.32287 9.6282 9.29346 9.6189 9.29346C9.6114 9.29346 9.604 9.28243 9.604 9.26956C9.604 9.25669 9.5854 9.22542 9.5631 9.20152C9.511 9.14452 9.4366 9.04155 9.4366 9.02684C9.4366 9.02132 9.4217 9.00294 9.4049 8.98455C9.3529 8.92939 9.3064 8.87055 9.3064 8.85952C9.3064 8.85032 9.2747 8.80803 9.1947 8.71058C9.1836 8.69771 9.1761 8.68116 9.1761 8.67013C9.1761 8.66094 9.1687 8.6499 9.1594 8.64623C9.1464 8.64071 8.9418 8.37042 8.8878 8.28584C8.8785 8.26929 8.8543 8.23987 8.8376 8.21964C8.819 8.19942 8.8004 8.16816 8.793 8.14977C8.7874 8.13139 8.7744 8.11668 8.7651 8.11668C8.7557 8.11668 8.7483 8.10381 8.7483 8.0891C8.7483 8.07439 8.7409 8.06151 8.7297 8.06151C8.6813 8.06151 8.7185 7.94935 8.8004 7.86109C8.8227 7.83535 8.8413 7.80409 8.8413 7.79122C8.8413 7.77835 8.8506 7.76732 8.8599 7.76732C8.8711 7.76732 8.8785 7.75445 8.8785 7.73974C8.8785 7.72503 8.886 7.71216 8.8934 7.71216C8.9008 7.71216 8.9325 7.67171 8.9622 7.62022C8.9938 7.57058 9.0236 7.52829 9.0329 7.52829C9.0404 7.52829 9.0459 7.51909 9.0459 7.50806C9.0459 7.49703 9.0571 7.4768 9.0701 7.46393C9.1241 7.40325 9.1389 7.38119 9.1389 7.3628C9.1389 7.35361 9.1482 7.34442 9.1575 7.34442C9.1687 7.34442 9.1761 7.33706 9.1761 7.32603C9.1761 7.31684 9.2059 7.26719 9.2412 7.21754C9.2766 7.16974 9.3064 7.12377 9.3064 7.11825C9.3064 7.11274 9.325 7.087 9.3491 7.06125C9.4031 7.00241 9.4291 6.96932 9.4384 6.94725C9.4514 6.916 9.6672 6.60157 9.7026 6.5648C9.7193 6.54457 9.7342 6.51699 9.7342 6.50412C9.7342 6.49125 9.7416 6.48022 9.7491 6.48022C9.7677 6.48022 9.8644 6.33864 9.8644 6.3129C9.8644 6.3037 9.8718 6.29635 9.8793 6.29635C9.8886 6.29635 9.9109 6.26693 9.9314 6.23199C9.95 6.19706 9.9723 6.16764 9.9797 6.16764C9.989 6.16764 9.9946 6.15477 9.9946 6.14006C9.9946 6.12535 10.0002 6.11248 10.0095 6.11248C10.0169 6.11248 10.0318 6.09777 10.0411 6.07754C10.0727 6.0187 10.1657 5.88631 10.2011 5.84954C10.2197 5.82748 10.2402 5.79622 10.2476 5.77783C10.2532 5.75944 10.2662 5.74473 10.2755 5.74473C10.2848 5.74473 10.2922 5.73554 10.2922 5.72635C10.2922 5.70796 10.4541 5.46893 10.4783 5.45054C10.4857 5.44502 10.5062 5.41376 10.5248 5.38067C10.5452 5.34941 10.5675 5.32183 10.575 5.32183C10.5824 5.32183 10.5899 5.30528 10.5899 5.28505C10.5899 5.26483 10.5973 5.24828 10.6066 5.24828C10.6159 5.24828 10.6271 5.23173 10.6326 5.21151C10.6382 5.19128 10.6401 5.17657 10.6401 5.17657C10.6401 5.17657 10.6252 5.18209 10.614 5.1876Z" fill="black"/>
<path d="M2.69722 6.56668C2.68978 6.5722 2.6842 7.247 2.6842 8.06523V9.55091H2.84604L2.85906 8.76394C2.86464 8.33185 2.87208 7.72507 2.87394 7.41249C2.8758 7.02452 2.88324 6.848 2.89812 6.848C2.90928 6.848 2.93346 6.87742 2.95207 6.91236C2.97253 6.94729 2.99485 6.97671 3.00415 6.97671C3.01159 6.97671 3.01903 6.98775 3.01903 7.00062C3.01903 7.01533 3.03577 7.04107 3.05623 7.05946C3.0767 7.07784 3.09344 7.10358 3.09344 7.11829C3.09344 7.13116 3.10646 7.1422 3.12134 7.1422C3.13622 7.1422 3.14924 7.15875 3.14924 7.17897C3.14924 7.1992 3.15854 7.21575 3.16784 7.21575C3.179 7.21575 3.18644 7.22862 3.18644 7.24333C3.18644 7.25804 3.19203 7.27091 3.20133 7.27091C3.20877 7.27091 3.23109 7.30033 3.24969 7.33526C3.27015 7.3702 3.29247 7.39962 3.30177 7.39962C3.30921 7.39962 3.31666 7.40881 3.31666 7.41984C3.31666 7.43088 3.37618 7.52281 3.44687 7.6221C3.51941 7.72323 3.57708 7.80965 3.57708 7.81333C3.57708 7.82068 3.68125 7.96594 3.72589 8.01926C3.73705 8.03213 3.74449 8.04684 3.74449 8.05236C3.74449 8.05788 3.77425 8.10385 3.8096 8.15349C3.84494 8.20314 3.8747 8.25094 3.8747 8.26014C3.8747 8.26749 3.89144 8.28588 3.91191 8.30059C3.93237 8.3153 3.94911 8.33552 3.94911 8.34656C3.94911 8.35759 3.96957 8.38701 3.99561 8.41459C4.02165 8.44217 4.04212 8.47343 4.04212 8.48446C4.04212 8.49365 4.05142 8.50285 4.06072 8.50285C4.07188 8.50285 4.07932 8.51204 4.07932 8.52307C4.07932 8.5341 4.09978 8.56904 4.12582 8.60214C4.15187 8.63523 4.17233 8.66833 4.17233 8.67569C4.17233 8.68304 4.18535 8.70143 4.20023 8.71614C4.21511 8.73085 4.28394 8.8283 4.35276 8.93127C4.42159 9.03424 4.48297 9.12249 4.48855 9.12801C4.49413 9.13353 4.53134 9.18685 4.5704 9.24753C4.65225 9.37256 4.85872 9.6594 4.88849 9.69066C4.89779 9.70169 4.92755 9.7403 4.95359 9.77708C4.97963 9.81385 5.00568 9.84511 5.01498 9.84511C5.02242 9.84511 5.028 9.8543 5.028 9.8635C5.028 9.87453 5.03916 9.89659 5.05218 9.9113C5.06334 9.92601 5.0838 9.94808 5.0931 9.96095C5.10426 9.97382 5.15449 10.04 5.20471 10.1117C5.28098 10.2202 5.39817 10.3728 5.47444 10.4648C5.4856 10.4776 5.49304 10.4923 5.49304 10.4979C5.49304 10.5034 5.50792 10.5218 5.52652 10.5401C5.57488 10.5935 5.62325 10.6541 5.62325 10.6652C5.62325 10.6689 5.64371 10.6964 5.66975 10.724C5.69579 10.7516 5.71626 10.781 5.71626 10.7902C5.71626 10.7994 5.73114 10.8196 5.74974 10.8362C5.76834 10.8527 5.7981 10.8858 5.81484 10.9116C5.83903 10.9465 5.84647 10.9502 5.84647 10.9244C5.84647 10.9079 5.83903 10.8932 5.83159 10.8932C5.82228 10.8932 5.79996 10.8601 5.78136 10.8196C5.76276 10.7792 5.74044 10.7461 5.73114 10.7461C5.7237 10.7461 5.71626 10.7332 5.71626 10.7185C5.71626 10.7038 5.70882 10.6909 5.69765 10.6909C5.68835 10.6909 5.67905 10.6817 5.67905 10.6725C5.67905 10.6541 5.61767 10.5604 5.57674 10.5162C5.56744 10.5034 5.5414 10.4648 5.52094 10.428C5.50048 10.3912 5.47816 10.3599 5.47072 10.3599C5.46141 10.3599 5.45583 10.3489 5.45583 10.3342C5.45583 10.3195 5.45025 10.3048 5.44281 10.3011C5.43351 10.2974 5.38143 10.2257 5.32562 10.1393C5.26982 10.0529 5.21773 9.97933 5.21029 9.9775C5.20099 9.97382 5.19541 9.96279 5.19541 9.95359C5.19541 9.94256 5.18797 9.92601 5.17681 9.91314C5.09682 9.81569 5.0652 9.7734 5.0652 9.76421C5.0652 9.75317 4.97219 9.60608 4.95359 9.58769C4.94801 9.58217 4.93313 9.55643 4.91825 9.52701C4.90337 9.49943 4.88477 9.47736 4.87547 9.47736C4.86802 9.47736 4.86058 9.46449 4.86058 9.44978C4.86058 9.43507 4.855 9.4222 4.8457 9.4222C4.83826 9.4222 4.81594 9.39278 4.79734 9.35785C4.77688 9.32291 4.75456 9.29349 4.74525 9.29349C4.73781 9.29349 4.73037 9.2843 4.73037 9.27143C4.73037 9.2604 4.70991 9.22362 4.68387 9.19053C4.65783 9.15743 4.63737 9.12249 4.63737 9.11146C4.63737 9.10043 4.62993 9.09124 4.61876 9.09124C4.60946 9.09124 4.60016 9.0802 4.60016 9.06549C4.60016 9.05078 4.59458 9.03607 4.58714 9.0324C4.57784 9.02872 4.52576 8.95701 4.46995 8.87059C4.41415 8.78417 4.36206 8.71062 4.35462 8.70878C4.34532 8.7051 4.33974 8.69039 4.33974 8.67569C4.33974 8.66098 4.3323 8.64994 4.323 8.64994C4.3137 8.64994 4.29696 8.6242 4.28394 8.59478C4.27092 8.56352 4.25603 8.53962 4.24859 8.53962C4.24115 8.53962 4.22069 8.5102 4.20209 8.47527C4.18163 8.44033 4.15931 8.41091 4.15001 8.41091C4.14256 8.41091 4.13512 8.39988 4.13512 8.38517C4.13512 8.37046 4.12396 8.34656 4.1128 8.33368C4.09978 8.32081 4.07746 8.28772 4.06258 8.2583C4.0477 8.23072 4.0291 8.20865 4.01979 8.20865C4.01235 8.20865 4.00491 8.19578 4.00491 8.18107C4.00491 8.16636 3.99933 8.15349 3.99003 8.15349C3.98259 8.15349 3.96027 8.12407 3.94167 8.08914C3.92121 8.0542 3.89888 8.02478 3.88958 8.02478C3.88214 8.02478 3.8747 8.01743 3.8747 8.00639C3.8747 7.98984 3.80216 7.87401 3.76309 7.82804C3.75379 7.81517 3.74449 7.79862 3.74449 7.78759C3.74449 7.77839 3.73891 7.76736 3.73147 7.76368C3.71101 7.75633 3.57708 7.55039 3.57708 7.53017C3.57708 7.52097 3.56406 7.50994 3.54918 7.50259C3.53429 7.49707 3.52127 7.48236 3.52127 7.46949C3.52127 7.45478 3.50453 7.43271 3.48407 7.418C3.46361 7.40329 3.44687 7.38307 3.44687 7.37388C3.44687 7.35181 3.35014 7.20839 3.33154 7.20104C3.32224 7.19736 3.31666 7.18265 3.31666 7.16794C3.31666 7.15323 3.30922 7.1422 3.29991 7.1422C3.29061 7.1422 3.27759 7.12749 3.27201 7.1091C3.25527 7.06497 3.21621 7.00062 3.18086 6.962C3.16226 6.94362 3.14924 6.91787 3.14924 6.90684C3.14924 6.89397 3.14366 6.88478 3.13436 6.88478C3.12692 6.88478 3.1046 6.85536 3.086 6.82042C3.06553 6.78549 3.04321 6.75607 3.03391 6.75607C3.02647 6.75607 3.01903 6.74687 3.01903 6.73768C3.01903 6.71378 2.94462 6.60897 2.90742 6.57771C2.87766 6.55381 2.71769 6.54461 2.69722 6.56668Z" fill="black"/>
<path d="M5.21773 6.57589C5.20099 6.59244 5.19541 6.94364 5.19541 8.04503C5.19541 8.84119 5.20099 9.50497 5.20657 9.52152C5.21773 9.54726 5.32376 9.55093 6.2315 9.55093H7.2434L7.2379 9.47187L7.2323 9.39464L6.3171 9.38913L5.40003 9.38545L5.39073 9.34316C5.38515 9.3211 5.38329 9.02874 5.38515 8.69593L5.39073 8.08916L7.1021 8.07077V7.92367L5.39073 7.90528L5.38515 7.35367C5.38329 7.05028 5.38515 6.78367 5.39073 6.75976L5.40003 6.71931H7.2044L7.2155 6.67518C7.2211 6.64944 7.2211 6.61267 7.2137 6.59244C7.2025 6.55383 7.1969 6.55383 6.2204 6.55383C5.48374 6.55383 5.23448 6.55934 5.21773 6.57589Z" fill="black"/>
<path d="M9.8904 6.59794C9.8849 6.62368 9.883 6.65862 9.8867 6.677C9.8923 6.70826 9.9276 6.7101 10.4131 6.71929L10.934 6.72849L10.9526 9.54172H11.12L11.1293 8.1351C11.1349 7.361 11.1405 6.72665 11.1442 6.72297C11.146 6.72113 11.3823 6.71929 11.6688 6.71929H12.1896V6.66597C12.1896 6.54461 12.2807 6.55381 11.0344 6.55381H9.9016L9.8904 6.59794Z" fill="black"/>
<path d="M13.0267 8.69222C12.9578 8.72348 12.8965 8.79887 12.8965 8.85403C12.8965 8.91471 12.9374 8.99929 12.9671 8.99929C12.9783 8.99929 12.9895 9.00664 12.9895 9.01768C12.9895 9.02687 13.0043 9.03606 13.0248 9.03606C13.0434 9.03606 13.1029 9.04893 13.155 9.06732C13.2294 9.08939 13.2536 9.10777 13.2629 9.14271C13.2889 9.24752 13.1048 9.299 13.0155 9.21074C12.9578 9.15374 12.8965 9.15006 12.8965 9.20339C12.8965 9.28245 13.0062 9.34865 13.1383 9.34865C13.2313 9.34865 13.2499 9.34129 13.3113 9.28429C13.3615 9.23648 13.3801 9.20523 13.3801 9.16294C13.3801 9.08939 13.3262 8.99929 13.2834 8.99929C13.2648 8.99929 13.235 8.99193 13.2164 8.98274C13.1997 8.97355 13.1494 8.957 13.1067 8.94597C12.9913 8.91471 12.9764 8.82277 13.0806 8.77864C13.142 8.75474 13.2183 8.77864 13.2666 8.83748C13.302 8.87793 13.3615 8.87426 13.3615 8.83013C13.3615 8.79887 13.2889 8.71613 13.2369 8.69039C13.1866 8.6628 13.0881 8.66464 13.0267 8.69222Z" fill="black"/>
<path d="M12.6695 8.69959C12.6398 8.70694 12.636 8.73452 12.636 8.95701C12.636 9.17398 12.6323 9.21075 12.6044 9.23098C12.5542 9.26775 12.517 9.26224 12.4686 9.21075C12.424 9.16295 12.357 9.15559 12.344 9.1942C12.3403 9.20707 12.3645 9.24569 12.3998 9.28246C12.4556 9.33946 12.4742 9.34866 12.5486 9.34866C12.6119 9.34866 12.6472 9.33762 12.6863 9.30453L12.7383 9.2604V8.97907C12.7383 8.69775 12.7346 8.68304 12.6695 8.69959Z" fill="black"/>
<path d="M12.1171 9.24566C12.0891 9.27875 12.1282 9.34863 12.1747 9.34863C12.2101 9.34863 12.2398 9.27324 12.2175 9.24014C12.2008 9.21072 12.1412 9.21624 12.1171 9.24566Z" fill="black"/>
</g>
<defs>
<clipPath id="clip0_367_822">
<rect width="16" height="16" fill="white"/>
</clipPath>
</defs>
</svg>
