<svg width="16" height="16" viewBox="0 0 16 16" fill="none" xmlns="http://www.w3.org/2000/svg">
<path d="M10.105 15.7354L1.60689 12.7963L0 6.81582L5.95925 0.305654L14.4252 3.1251L16 8.98601L10.105 15.7354Z" fill="black"/>
<path d="M8.03215 16L0.569898 11.0388V4.83721L8.03215 0L15.4944 4.83721V10.9147L8.03215 16Z" fill="white"/>
<path d="M10.614 5.18764C10.601 5.19132 10.5899 5.20603 10.5899 5.21706C10.5899 5.22993 10.5657 5.26487 10.5378 5.29797C10.508 5.33106 10.4634 5.38622 10.4392 5.42116C10.415 5.45793 10.389 5.48735 10.3815 5.48735C10.3722 5.48735 10.3666 5.49655 10.3666 5.50574C10.3666 5.51677 10.3462 5.54619 10.3201 5.57193C10.2941 5.59768 10.2736 5.62342 10.2736 5.63077C10.2736 5.63813 10.2457 5.67306 10.2123 5.70984C10.1788 5.74661 10.1304 5.80545 10.1062 5.84223C10.0802 5.879 10.0541 5.91026 10.0467 5.91026C10.0374 5.91026 10.0318 5.91945 10.0318 5.92864C10.0318 5.93968 10.0114 5.9691 9.98531 5.99484C9.95927 6.02058 9.93881 6.04632 9.93881 6.05368C9.93881 6.06103 9.90905 6.09781 9.8737 6.13826C9.83836 6.17687 9.8086 6.21365 9.8086 6.221C9.8086 6.22836 9.77511 6.27065 9.73419 6.31478C9.69327 6.3589 9.65979 6.40119 9.65979 6.40855C9.65979 6.41407 9.6449 6.43613 9.6263 6.45819C9.6077 6.47842 9.57608 6.51887 9.55562 6.54645C9.53701 6.57403 9.50167 6.61632 9.47935 6.64023C9.45517 6.66413 9.43657 6.68803 9.43657 6.69355C9.43657 6.70458 9.34728 6.8241 9.30264 6.87374C9.28403 6.89397 9.26915 6.91603 9.26915 6.92339C9.26915 6.93258 9.24869 6.95833 9.22265 6.98407C9.19661 7.00981 9.17614 7.03923 9.17614 7.05026C9.17614 7.06129 9.14638 7.10174 9.11104 7.13852C9.0757 7.17529 9.04593 7.21391 9.04593 7.22126C9.04593 7.23046 9.01617 7.27275 8.98083 7.31504C8.94549 7.35917 8.91572 7.40146 8.91572 7.40881C8.91572 7.41617 8.90084 7.43639 8.88224 7.45294C8.86364 7.46949 8.83202 7.50994 8.81341 7.5412C8.79295 7.57429 8.77063 7.60188 8.76319 7.60188C8.75575 7.60188 8.74831 7.61475 8.74831 7.62946C8.74831 7.64417 8.74087 7.65704 8.73343 7.65704C8.72599 7.65704 8.70553 7.6791 8.68878 7.70668C8.67018 7.7361 8.63484 7.78207 8.6088 7.81333C8.56229 7.86481 8.55857 7.86665 8.53997 7.83355C8.52881 7.81517 8.50463 7.78391 8.48603 7.76552C8.46557 7.7453 8.45068 7.72139 8.45068 7.7122C8.45068 7.70117 8.44324 7.69381 8.43208 7.69381C8.42278 7.69381 8.41348 7.68278 8.41348 7.66991C8.41348 7.65704 8.39302 7.62578 8.36698 7.5982C8.34094 7.57062 8.32047 7.54304 8.32047 7.53752C8.32047 7.52281 8.24793 7.42168 8.19584 7.36284C8.17166 7.33894 8.15306 7.30768 8.15306 7.29481C8.15306 7.28194 8.14562 7.27091 8.13818 7.27091C8.12888 7.27091 8.10656 7.24149 8.08609 7.20655C8.06749 7.17162 8.04517 7.1422 8.03773 7.1422C8.02843 7.1422 8.02285 7.12933 8.02285 7.11462C8.02285 7.09991 8.01727 7.08704 8.00797 7.08704C8.00053 7.08704 7.9503 7.02084 7.8945 6.93994C7.84055 6.85904 7.78847 6.79284 7.77917 6.79284C7.76987 6.79284 7.76243 6.78365 7.76243 6.77262C7.76243 6.75239 7.6564 6.61265 7.61361 6.57771C7.57827 6.55013 7.4276 6.54645 7.4276 6.57403C7.4276 6.58507 7.49084 6.68252 7.56711 6.78916C7.64338 6.89765 7.71592 7.00062 7.72894 7.02084C7.74196 7.03923 7.78475 7.09439 7.82381 7.1422C7.86101 7.19 7.89264 7.23965 7.89264 7.25068C7.89264 7.26171 7.90008 7.27091 7.90938 7.27091C7.91868 7.27091 7.9317 7.28562 7.93728 7.30217C7.94286 7.32055 7.9689 7.35733 7.99309 7.38675C8.01727 7.41433 8.05633 7.46581 8.08051 7.50075C8.1047 7.53568 8.13074 7.5651 8.14004 7.5651C8.14748 7.5651 8.15306 7.57429 8.15306 7.58533C8.15306 7.60739 8.28327 7.79126 8.30559 7.80046C8.31489 7.80413 8.32047 7.81884 8.32047 7.83355C8.32047 7.84826 8.32791 7.8593 8.33721 7.8593C8.34652 7.8593 8.35954 7.87401 8.36512 7.89239C8.37256 7.91078 8.39302 7.94388 8.41348 7.96594L8.45068 8.00639L8.40046 8.08178C8.3707 8.12407 8.34094 8.17188 8.32977 8.18659C8.30745 8.21968 8.26839 8.26933 8.22375 8.32265C8.20514 8.34472 8.19026 8.36678 8.19026 8.3723C8.19026 8.37781 8.16422 8.41275 8.13446 8.44768C8.1047 8.48262 8.07865 8.51756 8.07865 8.52491C8.07865 8.53227 8.06749 8.54881 8.05633 8.56169C8.04331 8.57456 8.00797 8.61868 7.97821 8.65914C7.94658 8.69959 7.91868 8.73636 7.9131 8.74188C7.90566 8.7474 7.89078 8.77314 7.87776 8.79888C7.86288 8.82646 7.83125 8.86875 7.80707 8.89449C7.78289 8.92023 7.76243 8.95149 7.76243 8.96069C7.76243 8.97172 7.75127 8.98643 7.7401 8.99378C7.72708 9.00114 7.67872 9.06182 7.63408 9.12801C7.58757 9.1942 7.502 9.31188 7.44248 9.38911C7.38296 9.46817 7.33459 9.53621 7.33459 9.54172C7.33459 9.54724 7.38482 9.55091 7.4462 9.55091C7.50759 9.55091 7.55781 9.5454 7.55781 9.5362C7.55781 9.52885 7.58013 9.49943 7.60617 9.46817C7.63222 9.43875 7.66942 9.38727 7.68988 9.35417C7.71034 9.32107 7.73638 9.29349 7.74569 9.29349C7.75499 9.29349 7.76243 9.28246 7.76243 9.26775C7.76243 9.25304 7.79219 9.21075 7.82753 9.17214C7.86287 9.13536 7.89264 9.09675 7.89264 9.08756C7.89264 9.07101 7.91868 9.03424 8.00425 8.93127C8.01541 8.9184 8.02285 8.90001 8.02285 8.88898C8.02285 8.87978 8.02843 8.87059 8.03773 8.87059C8.04517 8.87059 8.07679 8.83198 8.10656 8.78785C8.13818 8.74188 8.16794 8.70511 8.17724 8.70511C8.18468 8.70511 8.19026 8.69407 8.19026 8.6812C8.19026 8.67017 8.22003 8.62604 8.25537 8.58559C8.29071 8.54514 8.32047 8.50468 8.32047 8.49733C8.32047 8.48814 8.35024 8.44585 8.38558 8.40356C8.42092 8.35943 8.45068 8.3153 8.45068 8.30243C8.45068 8.29139 8.45813 8.2822 8.46557 8.2822C8.47487 8.2822 8.49347 8.26198 8.50649 8.23623C8.53253 8.18843 8.6181 8.17004 8.6181 8.21417C8.6181 8.22704 8.63856 8.2583 8.6646 8.28588C8.69064 8.31346 8.71111 8.34472 8.71111 8.35575C8.71111 8.36494 8.72041 8.37414 8.72971 8.37414C8.74087 8.37414 8.74831 8.38333 8.74831 8.39436C8.74831 8.40539 8.77807 8.44952 8.81341 8.49181C8.84876 8.53594 8.87852 8.58007 8.87852 8.59294C8.87852 8.60398 8.88596 8.61317 8.8934 8.61317C8.90084 8.61317 8.92316 8.64075 8.94363 8.67201C8.96223 8.7051 8.98269 8.73636 8.99013 8.74188C8.99571 8.7474 9.03291 8.79704 9.07384 8.8522C9.11476 8.90736 9.15382 8.95517 9.16126 8.95885C9.17056 8.96253 9.17614 8.9754 9.17614 8.98643C9.17614 8.9993 9.20591 9.04159 9.24125 9.08204C9.27659 9.12249 9.30636 9.16111 9.30636 9.16846C9.30636 9.18133 9.31938 9.19788 9.40494 9.29717C9.42169 9.31924 9.43657 9.3413 9.43657 9.34682C9.43657 9.35233 9.45517 9.37991 9.47935 9.40749C9.50167 9.43324 9.53701 9.47737 9.55562 9.50311C9.58538 9.54356 9.60398 9.55091 9.68955 9.55091C9.79372 9.55091 9.81046 9.5362 9.76209 9.4884C9.74721 9.47369 9.73419 9.45346 9.73419 9.44243C9.73419 9.4314 9.72861 9.4222 9.71931 9.4222C9.71187 9.4222 9.68955 9.39278 9.67095 9.35785C9.65049 9.32291 9.62816 9.29349 9.61886 9.29349C9.61142 9.29349 9.60398 9.28246 9.60398 9.26959C9.60398 9.25672 9.58538 9.22546 9.56306 9.20156C9.51097 9.14456 9.43657 9.04159 9.43657 9.02688C9.43657 9.02136 9.42169 9.00298 9.40494 8.98459C9.35286 8.92943 9.30636 8.87059 9.30636 8.85956C9.30636 8.85036 9.27473 8.80807 9.19475 8.71062C9.18359 8.69775 9.17614 8.6812 9.17614 8.67017C9.17614 8.66098 9.1687 8.64994 9.1594 8.64627C9.14638 8.64075 8.94177 8.37046 8.88782 8.28588C8.87852 8.26933 8.85434 8.23991 8.8376 8.21968C8.819 8.19946 8.80039 8.1682 8.79295 8.14981C8.78737 8.13143 8.77435 8.11672 8.76505 8.11672C8.75575 8.11672 8.74831 8.10385 8.74831 8.08914C8.74831 8.07443 8.74087 8.06155 8.72971 8.06155C8.68134 8.06155 8.71855 7.94939 8.80039 7.86113C8.82272 7.83539 8.84132 7.80413 8.84132 7.79126C8.84132 7.77839 8.85062 7.76736 8.85992 7.76736C8.87108 7.76736 8.87852 7.75449 8.87852 7.73978C8.87852 7.72507 8.88596 7.7122 8.8934 7.7122C8.90084 7.7122 8.93246 7.67175 8.96223 7.62026C8.99385 7.57062 9.02361 7.52833 9.03291 7.52833C9.04035 7.52833 9.04593 7.51913 9.04593 7.5081C9.04593 7.49707 9.05709 7.47684 9.07012 7.46397C9.12406 7.40329 9.13894 7.38123 9.13894 7.36284C9.13894 7.35365 9.14824 7.34446 9.15754 7.34446C9.1687 7.34446 9.17614 7.3371 9.17614 7.32607C9.17614 7.31688 9.20591 7.26723 9.24125 7.21758C9.27659 7.16978 9.30636 7.12381 9.30636 7.11829C9.30636 7.11278 9.32496 7.08704 9.34914 7.06129C9.40308 7.00245 9.42913 6.96936 9.43843 6.94729C9.45145 6.91604 9.66723 6.60161 9.70257 6.56484C9.71931 6.54461 9.73419 6.51703 9.73419 6.50416C9.73419 6.49129 9.74163 6.48026 9.74907 6.48026C9.76767 6.48026 9.8644 6.33868 9.8644 6.31294C9.8644 6.30374 9.87184 6.29639 9.87928 6.29639C9.88858 6.29639 9.91091 6.26697 9.93137 6.23203C9.94997 6.1971 9.97229 6.16768 9.97973 6.16768C9.98903 6.16768 9.99461 6.15481 9.99461 6.1401C9.99461 6.12539 10.0002 6.11252 10.0095 6.11252C10.0169 6.11252 10.0318 6.09781 10.0411 6.07758C10.0727 6.01874 10.1657 5.88635 10.2011 5.84958C10.2197 5.82752 10.2402 5.79626 10.2476 5.77787C10.2532 5.75948 10.2662 5.74477 10.2755 5.74477C10.2848 5.74477 10.2922 5.73558 10.2922 5.72639C10.2922 5.708 10.4541 5.46897 10.4783 5.45058C10.4857 5.44506 10.5062 5.4138 10.5248 5.38071C10.5452 5.34945 10.5675 5.32187 10.575 5.32187C10.5824 5.32187 10.5899 5.30532 10.5899 5.28509C10.5899 5.26487 10.5973 5.24832 10.6066 5.24832C10.6159 5.24832 10.6271 5.23177 10.6326 5.21155C10.6382 5.19132 10.6401 5.17477 10.6401 5.17661C10.6382 5.17661 10.6252 5.18213 10.614 5.18764Z" fill="black"/>
<path d="M2.69722 6.56668C2.68978 6.5722 2.6842 7.247 2.6842 8.06523V9.55091H2.84604L2.85906 8.76394C2.86464 8.33185 2.87208 7.72507 2.87394 7.41249C2.8758 7.02452 2.88324 6.848 2.89812 6.848C2.90928 6.848 2.93346 6.87742 2.95207 6.91236C2.97253 6.94729 2.99485 6.97671 3.00415 6.97671C3.01159 6.97671 3.01903 6.98775 3.01903 7.00062C3.01903 7.01533 3.03577 7.04107 3.05623 7.05946C3.0767 7.07784 3.09344 7.10358 3.09344 7.11829C3.09344 7.13116 3.10646 7.1422 3.12134 7.1422C3.13622 7.1422 3.14924 7.15875 3.14924 7.17897C3.14924 7.1992 3.15854 7.21575 3.16784 7.21575C3.179 7.21575 3.18644 7.22862 3.18644 7.24333C3.18644 7.25804 3.19203 7.27091 3.20133 7.27091C3.20877 7.27091 3.23109 7.30033 3.24969 7.33526C3.27015 7.3702 3.29247 7.39962 3.30177 7.39962C3.30921 7.39962 3.31666 7.40881 3.31666 7.41984C3.31666 7.43088 3.37618 7.52281 3.44687 7.6221C3.51941 7.72323 3.57708 7.80965 3.57708 7.81333C3.57708 7.82068 3.68125 7.96594 3.72589 8.01926C3.73705 8.03213 3.74449 8.04684 3.74449 8.05236C3.74449 8.05788 3.77425 8.10385 3.8096 8.15349C3.84494 8.20314 3.8747 8.25094 3.8747 8.26014C3.8747 8.26749 3.89144 8.28588 3.91191 8.30059C3.93237 8.3153 3.94911 8.33552 3.94911 8.34656C3.94911 8.35759 3.96957 8.38701 3.99561 8.41459C4.02165 8.44217 4.04212 8.47343 4.04212 8.48446C4.04212 8.49365 4.05142 8.50285 4.06072 8.50285C4.07188 8.50285 4.07932 8.51204 4.07932 8.52307C4.07932 8.5341 4.09978 8.56904 4.12582 8.60214C4.15187 8.63523 4.17233 8.66833 4.17233 8.67569C4.17233 8.68304 4.18535 8.70143 4.20023 8.71614C4.21511 8.73085 4.28394 8.8283 4.35276 8.93127C4.42159 9.03424 4.48297 9.12249 4.48855 9.12801C4.49413 9.13353 4.53134 9.18685 4.5704 9.24753C4.65225 9.37256 4.85872 9.6594 4.88849 9.69066C4.89779 9.70169 4.92755 9.7403 4.95359 9.77708C4.97963 9.81385 5.00568 9.84511 5.01498 9.84511C5.02242 9.84511 5.028 9.8543 5.028 9.8635C5.028 9.87453 5.03916 9.89659 5.05218 9.9113C5.06334 9.92601 5.0838 9.94808 5.0931 9.96095C5.10426 9.97382 5.15449 10.04 5.20471 10.1117C5.28098 10.2202 5.39817 10.3728 5.47444 10.4648C5.4856 10.4776 5.49304 10.4923 5.49304 10.4979C5.49304 10.5034 5.50792 10.5218 5.52652 10.5401C5.57488 10.5935 5.62325 10.6541 5.62325 10.6652C5.62325 10.6689 5.64371 10.6964 5.66975 10.724C5.69579 10.7516 5.71626 10.781 5.71626 10.7902C5.71626 10.7994 5.73114 10.8196 5.74974 10.8362C5.76834 10.8527 5.7981 10.8858 5.81484 10.9116C5.83903 10.9465 5.84647 10.9502 5.84647 10.9244C5.84647 10.9079 5.83903 10.8932 5.83159 10.8932C5.82228 10.8932 5.79996 10.8601 5.78136 10.8196C5.76276 10.7792 5.74044 10.7461 5.73114 10.7461C5.7237 10.7461 5.71626 10.7332 5.71626 10.7185C5.71626 10.7038 5.70882 10.6909 5.69765 10.6909C5.68835 10.6909 5.67905 10.6817 5.67905 10.6725C5.67905 10.6541 5.61767 10.5604 5.57674 10.5162C5.56744 10.5034 5.5414 10.4648 5.52094 10.428C5.50048 10.3912 5.47816 10.3599 5.47072 10.3599C5.46141 10.3599 5.45583 10.3489 5.45583 10.3342C5.45583 10.3195 5.45025 10.3048 5.44281 10.3011C5.43351 10.2974 5.38143 10.2257 5.32562 10.1393C5.26982 10.0529 5.21773 9.97933 5.21029 9.9775C5.20099 9.97382 5.19541 9.96279 5.19541 9.95359C5.19541 9.94256 5.18797 9.92601 5.17681 9.91314C5.09682 9.81569 5.0652 9.7734 5.0652 9.76421C5.0652 9.75317 4.97219 9.60608 4.95359 9.58769C4.94801 9.58217 4.93313 9.55643 4.91825 9.52701C4.90337 9.49943 4.88477 9.47736 4.87547 9.47736C4.86802 9.47736 4.86058 9.46449 4.86058 9.44978C4.86058 9.43507 4.855 9.4222 4.8457 9.4222C4.83826 9.4222 4.81594 9.39278 4.79734 9.35785C4.77688 9.32291 4.75456 9.29349 4.74525 9.29349C4.73781 9.29349 4.73037 9.2843 4.73037 9.27143C4.73037 9.2604 4.70991 9.22362 4.68387 9.19053C4.65783 9.15743 4.63737 9.12249 4.63737 9.11146C4.63737 9.10043 4.62993 9.09124 4.61876 9.09124C4.60946 9.09124 4.60016 9.0802 4.60016 9.06549C4.60016 9.05078 4.59458 9.03607 4.58714 9.0324C4.57784 9.02872 4.52576 8.95701 4.46995 8.87059C4.41415 8.78417 4.36206 8.71062 4.35462 8.70878C4.34532 8.7051 4.33974 8.69039 4.33974 8.67569C4.33974 8.66098 4.3323 8.64994 4.323 8.64994C4.3137 8.64994 4.29696 8.6242 4.28394 8.59478C4.27092 8.56352 4.25603 8.53962 4.24859 8.53962C4.24115 8.53962 4.22069 8.5102 4.20209 8.47527C4.18163 8.44033 4.15931 8.41091 4.15001 8.41091C4.14256 8.41091 4.13512 8.39988 4.13512 8.38517C4.13512 8.37046 4.12396 8.34656 4.1128 8.33368C4.09978 8.32081 4.07746 8.28772 4.06258 8.2583C4.0477 8.23072 4.0291 8.20865 4.01979 8.20865C4.01235 8.20865 4.00491 8.19578 4.00491 8.18107C4.00491 8.16636 3.99933 8.15349 3.99003 8.15349C3.98259 8.15349 3.96027 8.12407 3.94167 8.08914C3.92121 8.0542 3.89888 8.02478 3.88958 8.02478C3.88214 8.02478 3.8747 8.01743 3.8747 8.00639C3.8747 7.98984 3.80216 7.87401 3.76309 7.82804C3.75379 7.81517 3.74449 7.79862 3.74449 7.78759C3.74449 7.77839 3.73891 7.76736 3.73147 7.76368C3.71101 7.75633 3.57708 7.55039 3.57708 7.53017C3.57708 7.52097 3.56406 7.50994 3.54918 7.50259C3.53429 7.49707 3.52127 7.48236 3.52127 7.46949C3.52127 7.45478 3.50453 7.43271 3.48407 7.418C3.46361 7.40329 3.44687 7.38307 3.44687 7.37388C3.44687 7.35181 3.35014 7.20839 3.33154 7.20104C3.32224 7.19736 3.31666 7.18265 3.31666 7.16794C3.31666 7.15323 3.30922 7.1422 3.29991 7.1422C3.29061 7.1422 3.27759 7.12749 3.27201 7.1091C3.25527 7.06497 3.21621 7.00062 3.18086 6.962C3.16226 6.94362 3.14924 6.91787 3.14924 6.90684C3.14924 6.89397 3.14366 6.88478 3.13436 6.88478C3.12692 6.88478 3.1046 6.85536 3.086 6.82042C3.06553 6.78549 3.04321 6.75607 3.03391 6.75607C3.02647 6.75607 3.01903 6.74687 3.01903 6.73768C3.01903 6.71378 2.94462 6.60897 2.90742 6.57771C2.87766 6.55381 2.71769 6.54461 2.69722 6.56668Z" fill="black"/>
<path d="M5.21773 6.57587C5.20099 6.59242 5.19541 6.94362 5.19541 8.04501C5.19541 8.84117 5.20099 9.50495 5.20657 9.5215C5.21773 9.54724 5.32376 9.55091 6.23152 9.55091H7.24344L7.23786 9.47185L7.23228 9.39462L6.31709 9.38911L5.40003 9.38543L5.39073 9.34314C5.38515 9.32108 5.38329 9.02872 5.38515 8.69591L5.39073 8.08914L7.10207 8.07075V7.92365L5.39073 7.90526L5.38515 7.35365C5.38329 7.05026 5.38515 6.78365 5.39073 6.75974L5.40003 6.71929H7.20438L7.21554 6.67516C7.22112 6.64942 7.22112 6.61265 7.21368 6.59242C7.20252 6.55381 7.19694 6.55381 6.22036 6.55381C5.48374 6.55381 5.23448 6.55932 5.21773 6.57587Z" fill="black"/>
<path d="M9.89045 6.59794C9.88486 6.62368 9.883 6.65862 9.88672 6.677C9.8923 6.70826 9.92765 6.7101 10.4131 6.71929L10.934 6.72849L10.9526 9.54172H11.12L11.1293 8.1351C11.1349 7.361 11.1405 6.72665 11.1442 6.72297C11.146 6.72113 11.3823 6.71929 11.6688 6.71929H12.1896V6.66597C12.1896 6.54461 12.2807 6.55381 11.0344 6.55381H9.9016L9.89045 6.59794Z" fill="black"/>
<path d="M13.0267 8.69223C12.9578 8.72349 12.8965 8.79888 12.8965 8.85404C12.8965 8.91472 12.9374 8.9993 12.9671 8.9993C12.9783 8.9993 12.9895 9.00665 12.9895 9.01769C12.9895 9.02688 13.0043 9.03607 13.0248 9.03607C13.0434 9.03607 13.1029 9.04894 13.155 9.06733C13.2294 9.0894 13.2536 9.10778 13.2629 9.14272C13.2889 9.24753 13.1048 9.29901 13.0155 9.21075C12.9578 9.15375 12.8965 9.15007 12.8965 9.2034C12.8965 9.28246 13.0062 9.34866 13.1383 9.34866C13.2313 9.34866 13.2499 9.3413 13.3113 9.2843C13.3615 9.23649 13.3801 9.20524 13.3801 9.16295C13.3801 9.0894 13.3262 8.9993 13.2834 8.9993C13.2648 8.9993 13.235 8.99194 13.2164 8.98275C13.1997 8.97356 13.1494 8.95701 13.1067 8.94598C12.9913 8.91472 12.9764 8.82278 13.0806 8.77865C13.142 8.75475 13.2183 8.77865 13.2666 8.83749C13.302 8.87794 13.3615 8.87427 13.3615 8.83014C13.3615 8.79888 13.2889 8.71614 13.2369 8.6904C13.1866 8.66281 13.0881 8.66465 13.0267 8.69223Z" fill="black"/>
<path d="M12.6695 8.69959C12.6398 8.70694 12.636 8.73452 12.636 8.95701C12.636 9.17398 12.6323 9.21075 12.6044 9.23098C12.5542 9.26775 12.517 9.26224 12.4686 9.21075C12.424 9.16295 12.357 9.15559 12.344 9.1942C12.3403 9.20707 12.3645 9.24569 12.3998 9.28246C12.4556 9.33946 12.4742 9.34866 12.5486 9.34866C12.6119 9.34866 12.6472 9.33762 12.6863 9.30453L12.7383 9.2604V8.97907C12.7383 8.69775 12.7346 8.68304 12.6695 8.69959Z" fill="black"/>
<path d="M12.1171 9.24569C12.0891 9.27878 12.1282 9.34866 12.1747 9.34866C12.2101 9.34866 12.2398 9.27327 12.2175 9.24017C12.2008 9.21075 12.1412 9.21627 12.1171 9.24569Z" fill="black"/>
</svg>
