<svg width="16" height="16" viewBox="0 0 16 16" fill="none" xmlns="http://www.w3.org/2000/svg">
<g clip-path="url(#clip0_367_806)">
<path d="M8.37072 0.102992C8.13338 -0.0309128 7.8516 -0.0309128 7.61433 0.102992L1.37075 3.71991C1.13348 3.85388 1 4.10687 1 4.37484V11.6235C1 11.8914 1.1483 12.1444 1.37075 12.2784L7.61433 15.8953C7.8516 16.0292 8.13338 16.0292 8.37072 15.8953L14.6142 12.2784C14.8516 12.1444 14.985 11.8914 14.985 11.6235V4.37484C14.985 4.10687 14.8367 3.85388 14.6142 3.71991L8.37072 0.102992Z" fill="url(#paint0_linear_367_806)"/>
<path d="M14.6292 3.71998L8.35596 0.103064C8.29667 0.0733001 8.22249 0.0435363 8.16319 0.0286865L1.13361 12.0998C1.1929 12.1742 1.26708 12.2337 1.34117 12.2784L7.61433 15.8953C7.79231 15.9994 8 16.0292 8.19277 15.9697L14.7923 3.85395C14.7478 3.79442 14.6885 3.74975 14.6292 3.71998Z" fill="url(#paint1_linear_367_806)"/>
<path d="M14.6292 12.2782C14.8072 12.174 14.9407 11.9954 15 11.8018L8.13351 0.0135533C7.9556 -0.0162105 7.76276 -0.00139301 7.59967 0.102845L1.37088 3.70482L8.08901 15.9992C8.17798 15.9843 8.28187 15.9545 8.37085 15.9099L14.6292 12.2782Z" fill="url(#paint2_linear_367_806)"/>
</g>
<defs>
<linearGradient id="paint0_linear_367_806" x1="10.5456" y1="2.79534" x2="4.86707" y2="14.3449" gradientUnits="userSpaceOnUse">
<stop stop-color="#3F873F"/>
<stop offset="0.3296" stop-color="#3F8B3D"/>
<stop offset="0.6367" stop-color="#3E9638"/>
<stop offset="0.9341" stop-color="#3DA92E"/>
<stop offset="1" stop-color="#3DAE2B"/>
</linearGradient>
<linearGradient id="paint1_linear_367_806" x1="7.05779" y1="8.83276" x2="23.0715" y2="-3.22903" gradientUnits="userSpaceOnUse">
<stop offset="0.1376" stop-color="#3F873F"/>
<stop offset="0.4016" stop-color="#52A044"/>
<stop offset="0.7129" stop-color="#64B749"/>
<stop offset="0.9081" stop-color="#6ABF4B"/>
</linearGradient>
<linearGradient id="paint2_linear_367_806" x1="0.771233" y1="7.9966" x2="15.2185" y2="7.9966" gradientUnits="userSpaceOnUse">
<stop offset="0.0919165" stop-color="#6ABF4B"/>
<stop offset="0.2871" stop-color="#64B749"/>
<stop offset="0.5984" stop-color="#52A044"/>
<stop offset="0.8624" stop-color="#3F873F"/>
</linearGradient>
<clipPath id="clip0_367_806">
<rect width="16" height="16" fill="white"/>
</clipPath>
</defs>
</svg>
