<svg width="16" height="16" viewBox="0 0 16 16" fill="none" xmlns="http://www.w3.org/2000/svg">
<g clip-path="url(#clip0_363_312)">
<path d="M7.80687 9.76987C8.61529 9.76987 9.27065 9.04075 9.27065 8.14134C9.27065 7.24193 8.61529 6.51282 7.80687 6.51282C6.99844 6.51282 6.34308 7.24193 6.34308 8.14134C6.34308 9.04075 6.99844 9.76987 7.80687 9.76987Z" fill="#76DFF7"/>
<path fill-rule="evenodd" clip-rule="evenodd" d="M12.3681 4.96584L12.317 5.17032C12.3681 4.96575 12.368 4.96582 12.3681 4.96584L12.3691 4.96618L12.3715 4.96691L12.3799 4.96957C12.3872 4.97186 12.3977 4.97521 12.4112 4.9796C12.4382 4.98837 12.4773 5.00129 12.5267 5.01823C12.6255 5.0521 12.7658 5.10211 12.9335 5.16722C13.2682 5.2971 13.7162 5.48864 14.1635 5.73393C14.6076 5.97752 15.0672 6.28278 15.4134 6.64566C15.7546 7.00318 16.0278 7.46254 15.9977 8.00828V8.01069C15.9974 8.01792 15.997 8.02676 15.9963 8.03713C15.9949 8.05787 15.9923 8.08473 15.9877 8.11714C15.9784 8.182 15.9609 8.26881 15.9282 8.37288C15.8624 8.58194 15.7366 8.85568 15.4986 9.15832C15.0233 9.76268 14.1131 10.4671 12.3712 11.0209C12.3196 11.0378 12.2673 11.0541 12.2142 11.07C12.5043 13.0443 12.3758 14.214 12.132 14.9127C11.9976 15.2977 11.8282 15.5393 11.6764 15.6885C11.6011 15.7625 11.5321 15.8117 11.4773 15.8439C11.4499 15.86 11.4262 15.8717 11.4072 15.8801C11.4011 15.8828 11.3954 15.8852 11.3903 15.8872C11.3857 15.8894 11.3803 15.8918 11.3743 15.8945C11.3561 15.9025 11.3319 15.9123 11.3017 15.9226C11.2413 15.9434 11.1573 15.9664 11.051 15.9819C10.8375 16.013 10.538 16.0132 10.1634 15.9076C9.51409 15.7245 8.65822 15.2294 7.6403 14.0664C6.40366 15.2338 5.51181 15.6884 4.88612 15.822C4.52155 15.8998 4.24749 15.8684 4.05328 15.8046C3.95695 15.7729 3.8828 15.734 3.82914 15.6994C3.80237 15.6822 3.78086 15.6661 3.76435 15.6526C3.75905 15.6483 3.75428 15.6442 3.75 15.6405C3.74585 15.6372 3.74116 15.6335 3.73596 15.6292C3.72023 15.6163 3.69988 15.5987 3.67595 15.5757C3.62807 15.5298 3.56591 15.4629 3.49764 15.3709C3.36058 15.1862 3.20136 14.9039 3.08286 14.4947C2.8657 13.7449 2.79145 12.5922 3.20835 10.863C1.64848 10.2292 0.83953 9.578 0.422625 9.02994C0.182812 8.71468 0.0729568 8.43359 0.0276929 8.21398C0.00524114 8.10505 -0.000714769 8.01412 6.60934e-05 7.94511C0.000455501 7.9107 0.0025174 7.88194 0.00497698 7.85932C0.00576514 7.85207 0.00659387 7.84545 0.00742094 7.83948C0.00791951 7.83386 0.00854593 7.82747 0.00933252 7.82035C0.0117165 7.79876 0.0155726 7.77037 0.0218007 7.73592C0.0342627 7.66699 0.0562027 7.57388 0.0947632 7.46256C0.172172 7.23908 0.315188 6.94622 0.57754 6.63059C1.0275 6.08926 1.81521 5.49621 3.19232 5.05828C3.18898 5.04041 3.18535 5.02071 3.18146 4.99927C3.161 4.88655 3.13346 4.72554 3.10473 4.53046C3.04739 4.14131 2.98458 3.61192 2.96459 3.05759C2.94474 2.50711 2.96623 1.91213 3.08735 1.40035C3.20668 0.896148 3.43886 0.409658 3.88414 0.178301L3.8861 0.177214C3.89193 0.173994 3.89911 0.170182 3.90763 0.165921C3.92469 0.157399 3.94713 0.147085 3.97493 0.136132C4.03058 0.114207 4.10748 0.0898189 4.2053 0.0720964C4.40179 0.0364983 4.67805 0.0286517 5.03073 0.116695C5.69221 0.281828 6.60664 0.779741 7.76715 2.03087C7.83138 1.96455 7.90926 1.88569 7.99847 1.79822C8.26439 1.53749 8.63421 1.19711 9.04576 0.883845C9.45445 0.572763 9.91899 0.277008 10.3731 0.119364C10.8205 -0.0359446 11.3143 -0.0754598 11.727 0.221409L11.7288 0.222674C11.7344 0.226458 11.7411 0.2312 11.7489 0.236975C11.7644 0.248525 11.7842 0.264201 11.8073 0.28459C11.8536 0.325407 11.913 0.384937 11.9784 0.467738C12.1099 0.634056 12.2626 0.890299 12.3829 1.26952C12.6126 1.99385 12.7188 3.14876 12.3594 4.96329L12.3661 4.96525L12.3681 4.96584ZM9.54344 4.48604C9.15417 3.83028 8.67435 3.09049 8.1783 2.49508C8.23667 2.43502 8.30638 2.36459 8.3856 2.28692C8.64064 2.03686 8.99102 1.7148 9.37638 1.42147C9.76461 1.12596 10.1737 0.870964 10.5475 0.741203C10.926 0.609796 11.2119 0.624909 11.4119 0.770495L11.4201 0.776433L11.4238 0.778723C11.4266 0.780809 11.4334 0.786111 11.4435 0.79496C11.4637 0.812851 11.4975 0.845767 11.5388 0.897927C11.6207 1.00153 11.7353 1.18526 11.8307 1.48626C12.0133 2.06187 12.1309 3.0841 11.7895 4.81358C11.0486 4.63973 10.2868 4.53797 9.54344 4.48604ZM9.93681 5.17193C10.5097 5.22741 11.0867 5.31547 11.649 5.44636C11.49 6.06767 11.2539 6.73507 11.0131 7.34115C10.8573 6.99197 10.6799 6.61156 10.4781 6.19877L10.2209 6.35437C10.4781 6.19877 10.4781 6.19881 10.4781 6.19877L10.477 6.19653L10.4742 6.19073L10.4633 6.16879C10.4538 6.14968 10.4399 6.12172 10.4218 6.08581C10.3856 6.014 10.3327 5.91032 10.2655 5.78182C10.1784 5.61531 10.0671 5.40688 9.93681 5.17193ZM12.2194 5.59603C12.003 6.45175 11.6534 7.37057 11.3424 8.10792C11.5682 8.65655 11.7301 9.1044 11.8457 9.4586C11.9601 9.80926 12.0293 10.0684 12.0703 10.2428C12.0886 10.3207 12.1012 10.3817 12.1098 10.4265C12.1426 10.4164 12.175 10.4061 12.2071 10.3956L12.2093 10.3949C13.8822 9.86311 14.6795 9.21056 15.0579 8.72936C15.2469 8.48915 15.3346 8.28791 15.3755 8.15769C15.3961 8.09213 15.4053 8.04322 15.4094 8.01479C15.4114 8.00073 15.4122 7.9916 15.4125 7.98786V7.98302L15.4131 7.9722C15.429 7.70686 15.3006 7.42231 15.012 7.11982C14.727 6.82111 14.3265 6.5496 13.9046 6.31821C13.4858 6.08852 13.0617 5.90685 12.7407 5.78228C12.5806 5.72016 12.4472 5.67263 12.3543 5.64076C12.3078 5.62483 12.2715 5.61284 12.2471 5.60491C12.2349 5.60095 12.2255 5.59794 12.2194 5.59603ZM9.96376 6.51001C10.2583 7.11253 10.4989 7.64282 10.6953 8.10473C10.556 8.42525 10.4286 8.70201 10.3304 8.90988C10.2698 9.03817 10.2204 9.14006 10.1863 9.20963C10.1692 9.2444 10.156 9.27109 10.1471 9.28894L10.137 9.309L10.1346 9.31388L10.134 9.31501C9.82556 9.92447 9.54446 10.4414 9.29323 10.8772C8.98379 10.8984 8.71314 10.9102 8.50741 10.9169C8.3772 10.921 8.27315 10.9231 8.20192 10.9242C8.16631 10.9247 8.13891 10.925 8.12056 10.9251L8.09993 10.9252H8.0949H8.09374C7.34353 10.9252 6.7157 10.8983 6.19691 10.8581C6.14216 10.7632 6.08674 10.6659 6.03082 10.5664C5.62441 9.843 5.19441 9.0057 4.80763 8.1072C4.8552 7.9945 4.90456 7.87943 4.9557 7.76233C5.30653 6.95893 5.73873 6.06483 6.24694 5.18446C6.41456 5.1694 6.58905 5.15552 6.76942 5.14336C7.5117 5.09331 8.34916 5.07276 9.21475 5.11831L9.21578 5.1201C9.44086 5.5104 9.62831 5.85879 9.75941 6.10943C9.82492 6.2347 9.87628 6.33539 9.91113 6.40451C9.92855 6.43907 9.94185 6.46572 9.95071 6.48359L9.96066 6.5037L9.96307 6.50861L9.96376 6.51001ZM10.6441 9.63474C10.6441 9.63478 10.6441 9.63482 10.389 9.47503L10.6441 9.63474C10.4225 10.0726 10.2143 10.4645 10.0203 10.8145C10.5157 10.7625 11.0458 10.6865 11.5397 10.576L11.5393 10.5739C11.5329 10.5394 11.5218 10.4842 11.5038 10.4074C11.4677 10.2538 11.404 10.014 11.2953 9.68092C11.2216 9.45501 11.1272 9.18631 11.0066 8.87266C10.9487 8.99959 10.8955 9.11386 10.8487 9.21293C10.7865 9.34453 10.7357 9.44945 10.7002 9.52173C10.6825 9.55787 10.6686 9.58586 10.6591 9.60495L10.6481 9.62683L10.6452 9.6326L10.6441 9.63474ZM8.52432 11.568C8.63011 11.5646 8.75258 11.5599 8.88839 11.5532C8.71355 11.8334 8.55906 12.0651 8.42617 12.2546C8.23024 12.534 8.08138 12.7214 7.98357 12.837C7.93467 12.8947 7.89854 12.9346 7.87568 12.9589C7.86425 12.9711 7.85614 12.9794 7.85141 12.9842L7.84707 12.9886L7.84279 12.9926L7.83833 12.9973C7.78568 13.052 7.73367 13.1053 7.68231 13.1574C7.65586 13.1239 7.62927 13.09 7.60256 13.0555L7.59708 13.048C7.5918 13.0407 7.58378 13.0297 7.57319 13.015C7.552 12.9856 7.52048 12.9415 7.47987 12.8837C7.39862 12.768 7.28101 12.5974 7.13678 12.3795C6.984 12.1487 6.80151 11.865 6.60085 11.5375C7.03619 11.5618 7.53192 11.5766 8.0935 11.5766V11.2509C8.0935 11.5766 8.09345 11.5766 8.0935 11.5766H8.10173L8.12424 11.5765C8.14386 11.5763 8.1726 11.5761 8.2096 11.5755C8.28361 11.5744 8.39075 11.5723 8.52432 11.568ZM10.3073 15.2761C9.7908 15.1305 9.03229 14.7167 8.08025 13.6353C8.13113 13.5837 8.18253 13.5309 8.23447 13.477L8.2379 13.4736L8.24496 13.4665C8.25365 13.4577 8.26561 13.4454 8.28078 13.4293C8.31112 13.3969 8.35431 13.3492 8.40985 13.2835C8.52093 13.1523 8.68152 12.9495 8.8878 12.6553C9.09039 12.3665 9.33718 11.9893 9.62452 11.5052C10.2373 11.4548 10.9646 11.3681 11.6426 11.2174C11.9153 13.1035 11.7763 14.1321 11.5862 14.6769C11.4829 14.9727 11.365 15.1253 11.2888 15.2003C11.25 15.2383 11.2198 15.2585 11.204 15.2678C11.1996 15.2704 11.1962 15.2722 11.194 15.2733L11.18 15.2778L11.1616 15.2876L11.1594 15.2885C11.1545 15.2907 11.1443 15.2949 11.1289 15.3002C11.0981 15.3108 11.0464 15.3256 10.9749 15.336C10.8327 15.3568 10.6078 15.3609 10.3073 15.2761ZM7.15645 13.4774C7.18527 13.5146 7.21398 13.5513 7.24257 13.5875C6.06068 14.6992 5.26488 15.0778 4.77579 15.1823C4.49565 15.2421 4.31677 15.2119 4.21923 15.1799C4.16968 15.1636 4.13824 15.1458 4.12279 15.1359C4.11842 15.1331 4.11526 15.1308 4.11328 15.1293L4.10241 15.1185L4.08516 15.1063L4.08329 15.1048C4.07905 15.1013 4.07038 15.094 4.05817 15.0823C4.03375 15.0589 3.99507 15.018 3.94915 14.9561C3.85781 14.8331 3.73525 14.6233 3.64016 14.2949C3.46777 13.6997 3.37958 12.6918 3.7633 11.0759C3.80899 11.0925 3.85522 11.109 3.90202 11.1256C3.90541 11.1269 3.90984 11.1286 3.91535 11.1306C3.92649 11.1347 3.94201 11.1403 3.96212 11.147C4.00234 11.1606 4.06093 11.179 4.13958 11.2007C4.29688 11.244 4.53451 11.3002 4.86607 11.3558C5.13446 11.4009 5.46453 11.4457 5.86353 11.483C6.16853 11.9993 6.44646 12.4351 6.66531 12.7658C6.81312 12.9891 6.93412 13.1646 7.01848 13.2847C7.06066 13.3448 7.0937 13.391 7.11635 13.4225C7.12768 13.4382 7.13642 13.4502 7.1424 13.4584L7.14931 13.4679L7.15118 13.4704L7.15188 13.4714C7.15193 13.4714 7.15198 13.4715 7.37827 13.2648L7.15188 13.4714L7.15418 13.4745L7.15645 13.4774ZM4.08339 10.5062C4.03174 10.4879 3.98085 10.4697 3.9307 10.4515C3.93919 10.4249 3.94914 10.394 3.96053 10.359C4.00548 10.221 4.07293 10.0195 4.16227 9.76783C4.25169 9.51593 4.36297 9.21395 4.49549 8.8751C4.81156 9.56656 5.14498 10.2115 5.46379 10.7854C5.27161 10.7617 5.10198 10.7367 4.95346 10.7117C4.63852 10.6588 4.41872 10.6065 4.28021 10.5683C4.21097 10.5493 4.16206 10.5338 4.13176 10.5236C4.11661 10.5185 4.10611 10.5147 4.10005 10.5124L4.09452 10.5104L4.08922 10.5082L4.08339 10.5062ZM5.51257 5.2619C5.12064 5.976 4.77988 6.68434 4.4923 7.33384C4.26616 6.74566 4.06491 6.1389 3.90551 5.52694C3.95398 5.51456 4.00317 5.50236 4.05308 5.49033L4.06161 5.48856C4.06985 5.48686 4.08239 5.4843 4.09906 5.48097C4.13241 5.4743 4.18228 5.46457 4.24736 5.4525C4.37752 5.42837 4.5684 5.39492 4.80937 5.35805C5.01096 5.32722 5.24743 5.29402 5.51257 5.2619ZM4.16149 8.1092C3.8408 7.33589 3.55328 6.51927 3.33823 5.68936C2.04813 6.10202 1.36648 6.64089 1.00742 7.07287C0.79689 7.32614 0.692695 7.54789 0.641112 7.6968C0.615177 7.77168 0.602176 7.82921 0.595821 7.86436C0.592641 7.88195 0.591119 7.89398 0.590478 7.89978L0.590209 7.90235L0.589148 7.92503L0.58598 7.9409C0.585804 7.94354 0.585598 7.94769 0.585535 7.95331C0.58531 7.97318 0.586848 8.01236 0.598396 8.06838C0.621131 8.17869 0.685295 8.36688 0.869567 8.60912C1.19486 9.03675 1.89355 9.63083 3.37745 10.2382C3.38668 10.2092 3.39754 10.1755 3.41003 10.1371C3.45671 9.99379 3.52612 9.7865 3.61769 9.52855C3.75183 9.15068 3.93369 8.66357 4.16149 8.1092ZM3.93304 4.85275C3.87451 4.86683 3.81684 4.88117 3.76003 4.89576L3.7554 4.87038C3.73615 4.7643 3.70995 4.61121 3.68253 4.4251C3.62754 4.05187 3.56836 3.55053 3.54964 3.03147C3.53078 2.50855 3.55387 1.98748 3.65356 1.56621C3.75453 1.13961 3.91787 0.878153 4.13499 0.766927L4.14384 0.762391L4.14766 0.760082C4.15073 0.758548 4.15831 0.754933 4.17037 0.75018C4.19477 0.740569 4.23778 0.726201 4.29941 0.715037C4.42181 0.692862 4.6226 0.682417 4.90253 0.7523C5.42839 0.883575 6.24917 1.30279 7.35464 2.49323C6.82371 3.13468 6.34236 3.84277 5.91263 4.56268C5.44943 4.60982 5.04747 4.66409 4.72962 4.71272C4.48266 4.75049 4.28625 4.7849 4.1511 4.80996C4.08352 4.82249 4.03123 4.83269 3.99558 4.83981C3.97776 4.84337 3.96409 4.84616 3.95474 4.84809L3.94399 4.85033L3.94109 4.85094L3.94 4.85117C3.93992 4.85119 3.93985 4.8512 3.99491 5.1711L3.94 4.85117L3.93644 4.85193L3.93304 4.85275ZM7.76577 2.95821C7.36975 3.43908 7.00118 3.96072 6.66135 4.49815C6.68546 4.49645 6.70967 4.49478 6.734 4.49314C7.36744 4.45043 8.07496 4.42825 8.81506 4.45011C8.49243 3.93098 8.13078 3.39917 7.76577 2.95821Z" fill="#76DFF7"/>
</g>
<defs>
<clipPath id="clip0_363_312">
<rect width="16" height="16" fill="white"/>
</clipPath>
</defs>
</svg>
