<svg width="16" height="16" viewBox="0 0 16 16" fill="none" xmlns="http://www.w3.org/2000/svg">
<path d="M0 0H16V16H0V0Z" fill="white"/>
<path d="M0 16H16V0H0V16ZM13.2833 7.48333C13.6667 7.66667 14.05 7.95 14.15 8.13333C14.3 8.43333 14.2667 8.53333 13.85 8.81667C13.2667 9.23333 13.1 9.25 12.8333 8.91667C12.3667 8.35 11.2333 8.86667 11.6167 9.46667C11.7 9.61667 12.3 10 12.9333 10.3333C14.6333 11.2 15.2167 12.2833 14.6 13.4667C14.25 14.15 13.8333 14.45 12.9667 14.6667C11.9167 14.9333 10.55 14.55 9.93333 13.8167C9.7 13.5333 9.5 13.25 9.5 13.1833C9.5 13.1167 9.8 12.9167 10.15 12.75C10.7833 12.4667 10.8 12.4667 11.15 12.8167C11.8667 13.5333 13.25 13.4167 13.1333 12.6167C13.1 12.35 12.7667 12.0833 11.9167 11.6333C10.3833 10.8333 10 10.3833 10 9.35C10 8.41667 10.4167 7.76667 11.2333 7.4C11.9333 7.1 12.4667 7.11667 13.2833 7.48333ZM9.16667 8.83333H7.16667V14.6667H5.5V8.83333H3.5V7.33333H9.16667V8.83333Z" fill="#3466C8"/>
</svg>
