<svg width="31" height="30" viewBox="0 0 31 30" fill="none" xmlns="http://www.w3.org/2000/svg">
<path d="M14.0256 0.0376282C9.17581 0.524868 4.92616 3.07848 2.34363 7.05859C-0.608698 11.6023 -0.784504 17.4902 1.88896 22.1924C3.10141 24.3292 4.84129 26.1608 6.98733 27.5521C8.43015 28.4854 10.6247 29.3777 12.2979 29.7006C13.5952 29.953 14.0863 30 15.5109 30C16.9416 30 17.5296 29.9413 18.736 29.7006C24.0708 28.6205 28.5266 24.7578 30.2422 19.7092C30.7999 18.0773 31 16.8269 31 15.0012C31 13.2342 30.806 11.9897 30.2968 10.4517C29.5451 8.16222 28.2962 6.17804 26.526 4.44041C24.1072 2.06878 21.1124 0.607054 17.663 0.113943C16.9173 0.00827599 14.7652 -0.0386868 14.0256 0.0376282ZM17.2023 3.88272C19.7181 4.24081 21.943 5.29748 23.7798 7.0175C25.7622 8.87254 26.9868 11.2618 27.3263 13.9445C27.4111 14.5844 27.4111 16.005 27.3323 16.6449C26.7807 20.9244 23.8465 24.5582 19.706 26.0727C19.2392 26.243 18.8512 26.2547 18.6572 26.1021L18.5117 25.9905L18.4753 23.8831C18.439 21.5114 18.4087 21.3295 17.9479 20.6896L17.7176 20.3726L18.3541 20.2669C19.8394 20.0321 20.8275 19.5977 21.6338 18.8169C22.4401 18.0362 22.8584 17.1321 23.0281 15.8113C23.119 15.1069 23.0766 13.9269 22.9432 13.4456C22.8099 12.9642 22.4764 12.3243 22.1551 11.9251L21.8884 11.5905L21.9793 11.3146C22.1794 10.6689 22.137 9.61807 21.8823 8.87841L21.7732 8.57315L21.4216 8.55554C20.8336 8.52618 19.8757 8.87254 18.8694 9.49479L18.4875 9.72374L18.1359 9.63568C16.6445 9.26585 14.3772 9.26585 12.8859 9.63568L12.5343 9.72374L12.1524 9.49479C11.1461 8.87254 10.1882 8.52618 9.60017 8.55554L9.24856 8.57315L9.13944 8.87841C8.88482 9.61807 8.84239 10.6689 9.0485 11.3146L9.13338 11.5964L8.90301 11.8723C8.58777 12.2597 8.27253 12.8409 8.11491 13.3281C7.93911 13.8565 7.88455 15.0658 7.99367 15.8407C8.17554 17.1615 8.59383 18.0538 9.38799 18.8169C9.82448 19.2455 10.0003 19.3688 10.5398 19.6271C11.243 19.9617 11.9523 20.1789 12.7283 20.2904C13.0072 20.3315 13.2436 20.3667 13.2557 20.3785C13.2678 20.3843 13.183 20.5252 13.0678 20.6896C12.8617 20.9714 12.601 21.6112 12.601 21.8167C12.601 22.0222 11.625 22.2629 11.0006 22.2041C10.2488 22.1337 9.67292 21.7756 9.18794 21.0594C8.56958 20.1554 7.67843 19.6447 7.01764 19.8149C6.64178 19.9147 6.7024 20.126 7.19951 20.4548C7.76936 20.8364 8.14523 21.306 8.50896 22.0926C8.92726 23.0025 9.66079 23.4956 10.7884 23.6365C11.2309 23.6894 12.1888 23.6306 12.4434 23.5367C12.5283 23.5074 12.5404 23.6306 12.5404 24.7108V25.926L12.3828 26.0786C12.1463 26.3075 11.722 26.2547 10.8308 25.879C6.91458 24.2353 4.21687 20.7483 3.68945 16.6449C3.61064 16.005 3.61064 14.5844 3.69552 13.9445C3.97438 11.7549 4.86554 9.712 6.27805 8.01546C6.70847 7.49887 7.69056 6.57135 8.20585 6.18978C9.8366 4.98048 11.7765 4.17624 13.7528 3.88272C14.5531 3.76531 16.3899 3.76531 17.2023 3.88272ZM8.01792 20.1436C8.07248 20.1613 8.11491 20.22 8.11491 20.2669C8.11491 20.3902 7.84817 20.3374 7.82393 20.2082C7.79968 20.1026 7.8603 20.0849 8.01792 20.1436ZM8.59383 20.625C8.62415 20.6837 8.63021 20.7659 8.60596 20.807C8.53321 20.9185 8.29678 20.7835 8.29678 20.6368C8.29678 20.4841 8.51502 20.4783 8.59383 20.625ZM9.0485 21.2297C9.1455 21.3706 9.11519 21.5173 8.98788 21.5173C8.87876 21.5173 8.72114 21.2884 8.76358 21.1886C8.81208 21.0712 8.94545 21.0888 9.0485 21.2297ZM9.66079 21.8695C9.78204 22.0046 9.74567 22.1631 9.58198 22.1631C9.43043 22.1631 9.32737 22.0515 9.32737 21.8871C9.32737 21.7169 9.50924 21.7052 9.66079 21.8695ZM10.5277 22.3509C10.6368 22.4566 10.6186 22.5622 10.4792 22.6033C10.3216 22.6503 10.1155 22.5388 10.1155 22.3979C10.1155 22.3098 10.1579 22.2805 10.2852 22.2805C10.3761 22.2805 10.4853 22.3098 10.5277 22.3509ZM12.4191 22.3685C12.5222 22.4859 12.4009 22.6327 12.1948 22.6327C12.0069 22.6327 11.9402 22.4624 12.0857 22.3626C12.2312 22.257 12.3282 22.257 12.4191 22.3685ZM11.5098 22.4859C11.5704 22.5564 11.5704 22.5916 11.5098 22.6679C11.4007 22.7912 11.1218 22.7501 11.0976 22.6092C11.0551 22.4155 11.3704 22.3216 11.5098 22.4859Z" fill="white"/>
</svg>
