<svg width="29" height="31" viewBox="0 0 29 31" fill="none" xmlns="http://www.w3.org/2000/svg">
<g clip-path="url(#clip0_1_15)">
<path d="M14.5064 8.53712C10.3894 8.53712 7.06863 11.6432 7.06863 15.494C7.06863 19.3447 10.3894 22.4508 14.5064 22.4508C18.6233 22.4508 21.9441 19.3447 21.9441 15.494C21.9441 11.6432 18.6233 8.53712 14.5064 8.53712ZM14.5064 20.0168C11.8459 20.0168 9.67086 17.9885 9.67086 15.494C9.67086 12.9994 11.8394 10.9711 14.5064 10.9711C17.1733 10.9711 19.3418 12.9994 19.3418 15.494C19.3418 17.9885 17.1668 20.0168 14.5064 20.0168ZM23.9831 8.25255C23.9831 9.15469 23.2064 9.8752 22.2483 9.8752C21.2838 9.8752 20.5135 9.14864 20.5135 8.25255C20.5135 7.35645 21.2903 6.62989 22.2483 6.62989C23.2064 6.62989 23.9831 7.35645 23.9831 8.25255ZM28.9093 9.89942C28.7992 7.72579 28.2684 5.8004 26.566 4.21407C24.87 2.62774 22.8115 2.13126 20.4876 2.02227C18.0925 1.89512 10.9137 1.89512 8.51863 2.02227C6.20122 2.1252 4.14274 2.62169 2.44028 4.20801C0.737827 5.79434 0.213497 7.71973 0.0969788 9.89337C-0.0389587 12.1336 -0.0389587 18.8482 0.0969788 21.0885C0.207023 23.2621 0.737827 25.1875 2.44028 26.7738C4.14274 28.3602 6.19475 28.8566 8.51863 28.9656C10.9137 29.0928 18.0925 29.0928 20.4876 28.9656C22.8115 28.8627 24.87 28.3662 26.566 26.7738C28.2619 25.1875 28.7927 23.2621 28.9093 21.0885C29.0452 18.8482 29.0452 12.1397 28.9093 9.89942ZM25.8151 23.4922C25.3101 24.6789 24.3327 25.5932 23.0575 26.0715C21.1479 26.7799 16.6166 26.6164 14.5064 26.6164C12.3961 26.6164 7.85836 26.7738 5.95524 26.0715C4.68649 25.5992 3.70903 24.685 3.19765 23.4922C2.44028 21.7061 2.61506 17.4678 2.61506 15.494C2.61506 13.5201 2.44676 9.27579 3.19765 7.49571C3.70256 6.30899 4.68001 5.39473 5.95524 4.91641C7.86484 4.20801 12.3961 4.37149 14.5064 4.37149C16.6166 4.37149 21.1543 4.21407 23.0575 4.91641C24.3262 5.38868 25.3037 6.30294 25.8151 7.49571C26.5724 9.28184 26.3976 13.5201 26.3976 15.494C26.3976 17.4678 26.5724 21.7121 25.8151 23.4922Z" fill="white"/>
</g>
<defs>
<clipPath id="clip0_1_15">
<rect width="29" height="31" fill="white"/>
</clipPath>
</defs>
</svg>
