<svg width="29" height="26" viewBox="0 0 29 26" fill="none" xmlns="http://www.w3.org/2000/svg">
<path d="M26.9286 0H2.06496C0.92567 0 0 0.841518 0 1.87455V24.1254C0 25.1585 0.92567 26 2.06496 26H26.9286C28.0679 26 29 25.1585 29 24.1254V1.87455C29 0.841518 28.0679 0 26.9286 0ZM8.76473 22.2857H4.46652V9.87768H8.7712V22.2857H8.76473ZM6.61562 8.18304C5.23683 8.18304 4.12344 7.17902 4.12344 5.94866C4.12344 4.7183 5.23683 3.71429 6.61562 3.71429C7.98795 3.71429 9.10781 4.7183 9.10781 5.94866C9.10781 7.18482 7.99442 8.18304 6.61562 8.18304ZM24.8766 22.2857H20.5783V16.25C20.5783 14.8107 20.546 12.9594 18.3451 12.9594C16.1054 12.9594 15.7623 14.5263 15.7623 16.1455V22.2857H11.4641V9.87768H15.5875V11.5723H15.6458C16.2219 10.5973 17.6266 9.57009 19.7174 9.57009C24.0674 9.57009 24.8766 12.1411 24.8766 15.4839V22.2857Z" fill="white"/>
</svg>
