<svg width="237" height="232" viewBox="0 0 237 232" fill="none" xmlns="http://www.w3.org/2000/svg">
<path d="M210.105 185.405L191.515 178.792L188 165.336L201.036 150.688L219.555 157.031L223 170.219L210.105 185.405Z" fill="black"/>
<path d="M205.57 186L189.247 174.837V160.884L205.57 150L221.894 160.884V174.558L205.57 186Z" fill="white"/>
<path d="M211.218 161.672C211.19 161.68 211.165 161.714 211.165 161.738C211.165 161.767 211.112 161.846 211.051 161.92C210.986 161.995 210.889 162.119 210.836 162.198C210.783 162.28 210.726 162.347 210.71 162.347C210.689 162.347 210.677 162.367 210.677 162.388C210.677 162.413 210.632 162.479 210.575 162.537C210.518 162.595 210.474 162.653 210.474 162.669C210.474 162.686 210.413 162.764 210.339 162.847C210.266 162.93 210.16 163.062 210.107 163.145C210.05 163.228 209.993 163.298 209.977 163.298C209.957 163.298 209.945 163.319 209.945 163.339C209.945 163.364 209.9 163.43 209.843 163.488C209.786 163.546 209.741 163.604 209.741 163.621C209.741 163.637 209.676 163.72 209.599 163.811C209.521 163.898 209.456 163.981 209.456 163.997C209.456 164.014 209.383 164.109 209.294 164.208C209.204 164.308 209.131 164.403 209.131 164.419C209.131 164.432 209.098 164.481 209.058 164.531C209.017 164.576 208.948 164.667 208.903 164.73C208.862 164.792 208.785 164.887 208.736 164.941C208.683 164.994 208.642 165.048 208.642 165.06C208.642 165.085 208.447 165.354 208.35 165.466C208.309 165.511 208.276 165.561 208.276 165.578C208.276 165.598 208.232 165.656 208.175 165.714C208.118 165.772 208.073 165.838 208.073 165.863C208.073 165.888 208.008 165.979 207.93 166.062C207.853 166.144 207.788 166.231 207.788 166.248C207.788 166.269 207.723 166.364 207.646 166.459C207.568 166.558 207.503 166.653 207.503 166.67C207.503 166.686 207.471 166.732 207.43 166.769C207.389 166.806 207.32 166.897 207.279 166.968C207.235 167.042 207.186 167.104 207.169 167.104C207.153 167.104 207.137 167.133 207.137 167.166C207.137 167.199 207.121 167.228 207.104 167.228C207.088 167.228 207.043 167.278 207.007 167.34C206.966 167.406 206.889 167.51 206.832 167.58C206.73 167.696 206.722 167.7 206.681 167.625C206.657 167.584 206.604 167.514 206.563 167.472C206.518 167.427 206.486 167.373 206.486 167.352C206.486 167.328 206.47 167.311 206.445 167.311C206.425 167.311 206.404 167.286 206.404 167.257C206.404 167.228 206.36 167.158 206.303 167.096C206.246 167.034 206.201 166.972 206.201 166.959C206.201 166.926 206.042 166.699 205.928 166.566C205.876 166.513 205.835 166.442 205.835 166.413C205.835 166.384 205.819 166.36 205.802 166.36C205.782 166.36 205.733 166.293 205.688 166.215C205.648 166.136 205.599 166.07 205.583 166.07C205.562 166.07 205.55 166.041 205.55 166.008C205.55 165.975 205.538 165.946 205.517 165.946C205.501 165.946 205.391 165.797 205.269 165.615C205.151 165.433 205.037 165.284 205.017 165.284C204.997 165.284 204.98 165.263 204.98 165.238C204.98 165.193 204.748 164.878 204.655 164.8C204.577 164.738 204.248 164.73 204.248 164.792C204.248 164.816 204.386 165.036 204.553 165.276C204.72 165.52 204.879 165.751 204.907 165.797C204.936 165.838 205.029 165.962 205.115 166.07C205.196 166.178 205.265 166.289 205.265 166.314C205.265 166.339 205.281 166.36 205.302 166.36C205.322 166.36 205.351 166.393 205.363 166.43C205.375 166.471 205.432 166.554 205.485 166.62C205.538 166.682 205.623 166.798 205.676 166.877C205.729 166.955 205.786 167.021 205.806 167.021C205.823 167.021 205.835 167.042 205.835 167.067C205.835 167.117 206.12 167.53 206.168 167.551C206.189 167.559 206.201 167.592 206.201 167.625C206.201 167.659 206.217 167.683 206.238 167.683C206.258 167.683 206.286 167.717 206.299 167.758C206.315 167.799 206.36 167.874 206.404 167.923L206.486 168.014L206.376 168.184C206.311 168.279 206.246 168.387 206.221 168.42C206.173 168.494 206.087 168.606 205.989 168.726C205.949 168.776 205.916 168.825 205.916 168.838C205.916 168.85 205.859 168.929 205.794 169.007C205.729 169.086 205.672 169.165 205.672 169.181C205.672 169.198 205.648 169.235 205.623 169.264C205.595 169.293 205.517 169.392 205.452 169.483C205.383 169.574 205.322 169.657 205.31 169.669C205.294 169.682 205.261 169.74 205.233 169.797C205.2 169.86 205.131 169.955 205.078 170.013C205.025 170.071 204.98 170.141 204.98 170.162C204.98 170.186 204.956 170.219 204.931 170.236C204.903 170.253 204.797 170.389 204.7 170.538C204.598 170.687 204.411 170.952 204.28 171.125C204.15 171.303 204.044 171.456 204.044 171.469C204.044 171.481 204.154 171.49 204.289 171.49C204.423 171.49 204.533 171.477 204.533 171.456C204.533 171.44 204.582 171.374 204.639 171.303C204.695 171.237 204.777 171.121 204.822 171.047C204.866 170.972 204.923 170.91 204.944 170.91C204.964 170.91 204.98 170.886 204.98 170.852C204.98 170.819 205.045 170.724 205.123 170.637C205.2 170.555 205.265 170.468 205.265 170.447C205.265 170.41 205.322 170.327 205.509 170.095C205.534 170.066 205.55 170.025 205.55 170C205.55 169.98 205.562 169.959 205.583 169.959C205.599 169.959 205.668 169.872 205.733 169.773C205.802 169.669 205.867 169.586 205.888 169.586C205.904 169.586 205.916 169.562 205.916 169.533C205.916 169.508 205.981 169.409 206.059 169.318C206.136 169.227 206.201 169.136 206.201 169.119C206.201 169.098 206.266 169.003 206.343 168.908C206.421 168.809 206.486 168.709 206.486 168.68C206.486 168.656 206.502 168.635 206.518 168.635C206.539 168.635 206.579 168.589 206.608 168.532C206.665 168.424 206.852 168.383 206.852 168.482C206.852 168.511 206.897 168.581 206.954 168.643C207.011 168.705 207.056 168.776 207.056 168.8C207.056 168.821 207.076 168.842 207.096 168.842C207.121 168.842 207.137 168.862 207.137 168.887C207.137 168.912 207.202 169.011 207.279 169.107C207.357 169.206 207.422 169.305 207.422 169.334C207.422 169.359 207.438 169.38 207.454 169.38C207.471 169.38 207.519 169.442 207.564 169.512C207.605 169.586 207.65 169.657 207.666 169.669C207.678 169.682 207.759 169.793 207.849 169.917C207.939 170.042 208.024 170.149 208.04 170.157C208.061 170.166 208.073 170.195 208.073 170.219C208.073 170.248 208.138 170.344 208.215 170.435C208.293 170.526 208.358 170.612 208.358 170.629C208.358 170.658 208.386 170.695 208.573 170.919C208.61 170.968 208.642 171.018 208.642 171.03C208.642 171.043 208.683 171.105 208.736 171.167C208.785 171.225 208.862 171.324 208.903 171.382C208.968 171.473 209.009 171.49 209.196 171.49C209.424 171.49 209.46 171.456 209.355 171.349C209.322 171.316 209.294 171.27 209.294 171.245C209.294 171.221 209.281 171.2 209.261 171.2C209.245 171.2 209.196 171.134 209.155 171.055C209.11 170.977 209.062 170.91 209.041 170.91C209.025 170.91 209.009 170.886 209.009 170.857C209.009 170.828 208.968 170.757 208.919 170.704C208.805 170.575 208.642 170.344 208.642 170.31C208.642 170.298 208.61 170.257 208.573 170.215C208.459 170.091 208.358 169.959 208.358 169.934C208.358 169.913 208.288 169.818 208.114 169.599C208.089 169.57 208.073 169.533 208.073 169.508C208.073 169.487 208.057 169.462 208.036 169.454C208.008 169.442 207.56 168.834 207.442 168.643C207.422 168.606 207.369 168.54 207.332 168.494C207.292 168.449 207.251 168.378 207.235 168.337C207.222 168.296 207.194 168.263 207.174 168.263C207.153 168.263 207.137 168.234 207.137 168.201C207.137 168.167 207.121 168.139 207.096 168.139C206.99 168.139 207.072 167.886 207.251 167.688C207.3 167.63 207.34 167.559 207.34 167.53C207.34 167.501 207.361 167.477 207.381 167.477C207.405 167.477 207.422 167.448 207.422 167.415C207.422 167.381 207.438 167.352 207.454 167.352C207.471 167.352 207.54 167.261 207.605 167.146C207.674 167.034 207.739 166.939 207.759 166.939C207.776 166.939 207.788 166.918 207.788 166.893C207.788 166.868 207.812 166.823 207.841 166.794C207.959 166.657 207.991 166.608 207.991 166.566C207.991 166.546 208.012 166.525 208.032 166.525C208.057 166.525 208.073 166.508 208.073 166.484C208.073 166.463 208.138 166.351 208.215 166.24C208.293 166.132 208.358 166.029 208.358 166.016C208.358 166.004 208.398 165.946 208.451 165.888C208.569 165.756 208.626 165.681 208.647 165.631C208.675 165.561 209.147 164.854 209.224 164.771C209.261 164.725 209.294 164.663 209.294 164.634C209.294 164.605 209.31 164.581 209.326 164.581C209.367 164.581 209.578 164.262 209.578 164.204C209.578 164.183 209.595 164.167 209.611 164.167C209.631 164.167 209.68 164.101 209.725 164.022C209.766 163.943 209.814 163.877 209.831 163.877C209.851 163.877 209.863 163.848 209.863 163.815C209.863 163.782 209.875 163.753 209.896 163.753C209.912 163.753 209.945 163.72 209.965 163.675C210.034 163.542 210.238 163.244 210.315 163.162C210.356 163.112 210.4 163.042 210.417 163C210.429 162.959 210.457 162.926 210.478 162.926C210.498 162.926 210.514 162.905 210.514 162.884C210.514 162.843 210.868 162.305 210.921 162.264C210.937 162.251 210.982 162.181 211.023 162.107C211.068 162.036 211.116 161.974 211.133 161.974C211.149 161.974 211.165 161.937 211.165 161.891C211.165 161.846 211.182 161.809 211.202 161.809C211.222 161.809 211.247 161.771 211.259 161.726C211.271 161.68 211.275 161.643 211.275 161.647C211.271 161.647 211.243 161.66 211.218 161.672Z" fill="black"/>
<path d="M193.9 164.775C193.884 164.787 193.872 166.306 193.872 168.147V171.49H194.226L194.254 169.719C194.266 168.747 194.283 167.381 194.287 166.678C194.291 165.805 194.307 165.408 194.34 165.408C194.364 165.408 194.417 165.474 194.458 165.553C194.502 165.631 194.551 165.698 194.572 165.698C194.588 165.698 194.604 165.722 194.604 165.751C194.604 165.784 194.641 165.842 194.686 165.884C194.73 165.925 194.767 165.983 194.767 166.016C194.767 166.045 194.795 166.07 194.828 166.07C194.86 166.07 194.889 166.107 194.889 166.153C194.889 166.198 194.909 166.235 194.93 166.235C194.954 166.235 194.97 166.264 194.97 166.297C194.97 166.331 194.983 166.36 195.003 166.36C195.019 166.36 195.068 166.426 195.109 166.504C195.153 166.583 195.202 166.649 195.223 166.649C195.239 166.649 195.255 166.67 195.255 166.695C195.255 166.719 195.385 166.926 195.54 167.15C195.699 167.377 195.825 167.572 195.825 167.58C195.825 167.597 196.053 167.923 196.15 168.043C196.175 168.072 196.191 168.105 196.191 168.118C196.191 168.13 196.256 168.234 196.333 168.345C196.411 168.457 196.476 168.565 196.476 168.585C196.476 168.602 196.513 168.643 196.557 168.676C196.602 168.709 196.639 168.755 196.639 168.78C196.639 168.805 196.683 168.871 196.74 168.933C196.797 168.995 196.842 169.065 196.842 169.09C196.842 169.111 196.862 169.131 196.883 169.131C196.907 169.131 196.924 169.152 196.924 169.177C196.924 169.202 196.968 169.28 197.025 169.355C197.082 169.429 197.127 169.504 197.127 169.52C197.127 169.537 197.155 169.578 197.188 169.611C197.221 169.644 197.371 169.864 197.522 170.095C197.672 170.327 197.807 170.526 197.819 170.538C197.831 170.55 197.912 170.67 197.998 170.807C198.177 171.088 198.628 171.734 198.694 171.804C198.714 171.829 198.779 171.916 198.836 171.998C198.893 172.081 198.95 172.151 198.97 172.151C198.987 172.151 198.999 172.172 198.999 172.193C198.999 172.218 199.023 172.267 199.052 172.3C199.076 172.334 199.121 172.383 199.141 172.412C199.166 172.441 199.275 172.59 199.385 172.751C199.552 172.995 199.808 173.339 199.975 173.546C200 173.575 200.016 173.608 200.016 173.62C200.016 173.633 200.049 173.674 200.089 173.715C200.195 173.835 200.301 173.972 200.301 173.997C200.301 174.005 200.346 174.067 200.403 174.129C200.46 174.191 200.504 174.257 200.504 174.278C200.504 174.299 200.537 174.344 200.578 174.381C200.618 174.419 200.683 174.493 200.72 174.551C200.773 174.63 200.789 174.638 200.789 174.58C200.789 174.543 200.773 174.51 200.757 174.51C200.736 174.51 200.687 174.435 200.647 174.344C200.606 174.253 200.557 174.179 200.537 174.179C200.521 174.179 200.504 174.15 200.504 174.117C200.504 174.084 200.488 174.055 200.464 174.055C200.443 174.055 200.423 174.034 200.423 174.013C200.423 173.972 200.289 173.761 200.199 173.662C200.179 173.633 200.122 173.546 200.077 173.463C200.032 173.38 199.983 173.31 199.967 173.31C199.947 173.31 199.935 173.285 199.935 173.252C199.935 173.219 199.922 173.186 199.906 173.177C199.886 173.169 199.772 173.008 199.65 172.813C199.528 172.619 199.414 172.454 199.398 172.449C199.377 172.441 199.365 172.416 199.365 172.396C199.365 172.371 199.349 172.334 199.324 172.305C199.149 172.085 199.08 171.99 199.08 171.969C199.08 171.945 198.877 171.614 198.836 171.572C198.824 171.56 198.791 171.502 198.759 171.436C198.726 171.374 198.685 171.324 198.665 171.324C198.649 171.324 198.633 171.295 198.633 171.262C198.633 171.229 198.62 171.2 198.6 171.2C198.584 171.2 198.535 171.134 198.494 171.055C198.449 170.977 198.401 170.91 198.38 170.91C198.364 170.91 198.348 170.89 198.348 170.861C198.348 170.836 198.303 170.753 198.246 170.679C198.189 170.604 198.144 170.526 198.144 170.501C198.144 170.476 198.128 170.455 198.104 170.455C198.083 170.455 198.063 170.43 198.063 170.397C198.063 170.364 198.051 170.331 198.034 170.323C198.014 170.315 197.9 170.153 197.778 169.959C197.656 169.764 197.542 169.599 197.526 169.595C197.505 169.586 197.493 169.553 197.493 169.52C197.493 169.487 197.477 169.462 197.457 169.462C197.436 169.462 197.4 169.404 197.371 169.338C197.343 169.268 197.31 169.214 197.294 169.214C197.278 169.214 197.233 169.148 197.192 169.069C197.147 168.991 197.098 168.925 197.078 168.925C197.062 168.925 197.046 168.9 197.046 168.867C197.046 168.834 197.021 168.78 196.997 168.751C196.968 168.722 196.919 168.647 196.887 168.581C196.854 168.519 196.814 168.469 196.793 168.469C196.777 168.469 196.761 168.441 196.761 168.407C196.761 168.374 196.749 168.345 196.728 168.345C196.712 168.345 196.663 168.279 196.622 168.201C196.578 168.122 196.529 168.056 196.508 168.056C196.492 168.056 196.476 168.039 196.476 168.014C196.476 167.977 196.317 167.717 196.232 167.613C196.211 167.584 196.191 167.547 196.191 167.522C196.191 167.501 196.179 167.477 196.163 167.468C196.118 167.452 195.825 166.988 195.825 166.943C195.825 166.922 195.796 166.897 195.764 166.881C195.731 166.868 195.703 166.835 195.703 166.806C195.703 166.773 195.666 166.724 195.621 166.691C195.577 166.657 195.54 166.612 195.54 166.591C195.54 166.542 195.328 166.219 195.288 166.202C195.267 166.194 195.255 166.161 195.255 166.128C195.255 166.095 195.239 166.07 195.219 166.07C195.198 166.07 195.17 166.037 195.158 165.995C195.121 165.896 195.035 165.751 194.958 165.665C194.917 165.623 194.889 165.565 194.889 165.54C194.889 165.511 194.877 165.491 194.856 165.491C194.84 165.491 194.791 165.425 194.751 165.346C194.706 165.267 194.657 165.201 194.637 165.201C194.62 165.201 194.604 165.18 194.604 165.16C194.604 165.106 194.441 164.87 194.36 164.8C194.295 164.746 193.945 164.725 193.9 164.775Z" fill="black"/>
<path d="M199.414 164.796C199.377 164.833 199.365 165.623 199.365 168.101C199.365 169.893 199.377 171.386 199.389 171.423C199.414 171.481 199.646 171.49 201.631 171.49H203.845L203.833 171.312L203.821 171.138L201.819 171.125L199.813 171.117L199.792 171.022C199.78 170.972 199.776 170.315 199.78 169.566L199.792 168.201L203.536 168.159V167.828L199.792 167.787L199.78 166.546C199.776 165.863 199.78 165.263 199.792 165.209L199.813 165.118H203.76L203.784 165.019C203.796 164.961 203.796 164.878 203.78 164.833C203.756 164.746 203.743 164.746 201.607 164.746C199.996 164.746 199.45 164.758 199.414 164.796Z" fill="black"/>
<path d="M209.635 164.845C209.623 164.903 209.619 164.982 209.627 165.023C209.639 165.094 209.717 165.098 210.779 165.118L211.918 165.139L211.959 171.469H212.325L212.345 168.304C212.358 166.562 212.37 165.135 212.378 165.127C212.382 165.123 212.899 165.118 213.525 165.118H214.665V164.998C214.665 164.725 214.864 164.746 212.138 164.746H209.66L209.635 164.845Z" fill="black"/>
<path d="M216.496 169.558C216.345 169.628 216.211 169.797 216.211 169.922C216.211 170.058 216.301 170.248 216.366 170.248C216.39 170.248 216.414 170.265 216.414 170.29C216.414 170.31 216.447 170.331 216.492 170.331C216.532 170.331 216.663 170.36 216.777 170.401C216.939 170.451 216.992 170.493 217.013 170.571C217.07 170.807 216.667 170.923 216.471 170.724C216.345 170.596 216.211 170.588 216.211 170.708C216.211 170.886 216.451 171.034 216.74 171.034C216.943 171.034 216.984 171.018 217.118 170.89C217.228 170.782 217.269 170.712 217.269 170.617C217.269 170.451 217.151 170.248 217.057 170.248C217.017 170.248 216.952 170.232 216.911 170.211C216.874 170.191 216.764 170.153 216.671 170.128C216.419 170.058 216.386 169.851 216.614 169.752C216.748 169.698 216.915 169.752 217.021 169.884C217.098 169.975 217.228 169.967 217.228 169.868C217.228 169.797 217.07 169.611 216.956 169.553C216.846 169.491 216.63 169.495 216.496 169.558Z" fill="black"/>
<path d="M215.715 169.574C215.649 169.591 215.641 169.653 215.641 170.153C215.641 170.641 215.633 170.724 215.572 170.77C215.462 170.852 215.381 170.84 215.275 170.724C215.177 170.617 215.031 170.6 215.002 170.687C214.994 170.716 215.047 170.803 215.125 170.886C215.247 171.014 215.287 171.034 215.45 171.034C215.588 171.034 215.666 171.01 215.751 170.935L215.865 170.836V170.203C215.865 169.57 215.857 169.537 215.715 169.574Z" fill="black"/>
<path d="M214.506 170.803C214.445 170.877 214.53 171.034 214.632 171.034C214.71 171.034 214.775 170.865 214.726 170.79C214.689 170.724 214.559 170.737 214.506 170.803Z" fill="black"/>
<path d="M28.5 151L12 156.81L14.4527 177.684L28.5 185L42.5473 177.684L45 156.595L28.5 151Z" fill="#CE0000"/>
<path fill-rule="evenodd" clip-rule="evenodd" d="M18.2432 176.392H22.0338L24.0405 171.443H32.9595L35.1892 176.392H38.7568L28.5 154.443L18.2432 176.392ZM28.5 161.329L25.3784 168.215H31.6216L28.5 161.329Z" fill="white"/>
<path d="M114.565 218.761C116.384 218.761 117.859 217.212 117.859 215.3C117.859 213.389 116.384 211.84 114.565 211.84C112.746 211.84 111.272 213.389 111.272 215.3C111.272 217.212 112.746 218.761 114.565 218.761Z" fill="#76DFF7"/>
<path fill-rule="evenodd" clip-rule="evenodd" d="M124.828 208.552L124.713 208.987C124.828 208.552 124.828 208.552 124.828 208.552L124.829 208.553L124.831 208.553L124.836 208.555L124.855 208.56C124.871 208.565 124.895 208.572 124.925 208.582C124.986 208.6 125.074 208.628 125.185 208.664C125.407 208.736 125.723 208.842 126.1 208.98C126.853 209.256 127.862 209.663 128.868 210.185C129.867 210.702 130.901 211.351 131.68 212.122C132.448 212.882 133.063 213.858 132.995 215.018L132.995 215.023C132.994 215.038 132.993 215.057 132.992 215.079C132.988 215.123 132.983 215.18 132.972 215.249C132.951 215.387 132.912 215.571 132.838 215.792C132.69 216.237 132.407 216.818 131.872 217.461C130.802 218.746 128.754 220.242 124.835 221.419C124.719 221.455 124.601 221.49 124.482 221.524C125.135 225.719 124.846 228.205 124.297 229.689C123.995 230.508 123.613 231.021 123.272 231.338C123.102 231.495 122.947 231.6 122.824 231.668C122.762 231.702 122.709 231.727 122.666 231.745C122.652 231.751 122.64 231.756 122.628 231.76C122.618 231.765 122.606 231.77 122.592 231.776C122.551 231.793 122.497 231.814 122.429 231.836C122.293 231.88 122.104 231.929 121.865 231.962C121.384 232.028 120.71 232.028 119.868 231.804C118.407 231.414 116.481 230.362 114.191 227.891C111.408 230.372 109.402 231.338 107.994 231.622C107.173 231.787 106.557 231.72 106.12 231.585C105.903 231.517 105.736 231.435 105.616 231.361C105.555 231.325 105.507 231.29 105.47 231.262C105.458 231.253 105.447 231.244 105.438 231.236C105.428 231.229 105.418 231.221 105.406 231.212C105.371 231.185 105.325 231.147 105.271 231.098C105.163 231.001 105.023 230.859 104.87 230.663C104.561 230.271 104.203 229.671 103.936 228.801C103.448 227.208 103.281 224.758 104.219 221.084C100.709 219.737 98.8889 218.353 97.9509 217.189C97.4113 216.519 97.1642 215.921 97.0623 215.455C97.0118 215.223 96.9984 215.03 97.0001 214.883C97.001 214.81 97.0057 214.749 97.0112 214.701C97.013 214.686 97.0148 214.672 97.0167 214.659C97.0178 214.647 97.0192 214.633 97.021 214.618C97.0264 214.572 97.035 214.512 97.0491 214.439C97.0771 214.292 97.1265 214.094 97.2132 213.858C97.3874 213.383 97.7092 212.761 98.2995 212.09C99.3119 210.94 101.084 209.679 104.183 208.749C104.175 208.711 104.167 208.669 104.158 208.623C104.112 208.384 104.05 208.042 103.986 207.627C103.857 206.8 103.715 205.675 103.67 204.497C103.626 203.328 103.674 202.063 103.947 200.976C104.215 199.904 104.737 198.871 105.739 198.379L105.744 198.377C105.757 198.37 105.773 198.362 105.792 198.353C105.831 198.334 105.881 198.313 105.944 198.289C106.069 198.243 106.242 198.191 106.462 198.153C106.904 198.078 107.526 198.061 108.319 198.248C109.807 198.599 111.865 199.657 114.476 202.316C114.621 202.175 114.796 202.007 114.997 201.821C115.595 201.267 116.427 200.544 117.353 199.878C118.273 199.217 119.318 198.589 120.339 198.254C121.346 197.924 122.457 197.84 123.386 198.47L123.39 198.473C123.402 198.481 123.417 198.491 123.435 198.504C123.47 198.528 123.514 198.561 123.566 198.605C123.671 198.691 123.804 198.818 123.951 198.994C124.247 199.347 124.591 199.892 124.861 200.698C125.378 202.237 125.617 204.691 124.809 208.547L124.824 208.551L124.828 208.552ZM118.473 207.533C117.597 206.139 116.517 204.567 115.401 203.302C115.533 203.174 115.689 203.025 115.868 202.86C116.441 202.328 117.23 201.644 118.097 201.021C118.97 200.393 119.891 199.851 120.732 199.575C121.584 199.296 122.227 199.328 122.677 199.637L122.695 199.65L122.703 199.655C122.71 199.659 122.725 199.67 122.748 199.689C122.793 199.727 122.869 199.797 122.962 199.908C123.146 200.128 123.404 200.519 123.619 201.158C124.03 202.381 124.295 204.554 123.526 208.229C121.859 207.859 120.145 207.643 118.473 207.533ZM119.358 208.99C120.647 209.108 121.945 209.295 123.21 209.574C122.853 210.894 122.321 212.312 121.779 213.6C121.429 212.858 121.03 212.05 120.576 211.172L119.997 211.503C120.576 211.172 120.576 211.172 120.576 211.172L120.576 211.172L120.573 211.168L120.567 211.155L120.542 211.109C120.521 211.068 120.49 211.009 120.449 210.932C120.368 210.78 120.249 210.559 120.097 210.286C119.901 209.933 119.651 209.49 119.358 208.99ZM124.494 209.892C124.007 211.71 123.22 213.662 122.52 215.229C123.029 216.395 123.393 217.347 123.653 218.1C123.91 218.845 124.066 219.395 124.158 219.766C124.199 219.931 124.228 220.061 124.247 220.156C124.321 220.135 124.394 220.113 124.466 220.091L124.471 220.089C128.235 218.959 130.029 217.572 130.88 216.55C131.305 216.039 131.503 215.612 131.595 215.335C131.641 215.196 131.662 215.092 131.671 215.031C131.676 215.002 131.677 214.982 131.678 214.974V214.964L131.679 214.941C131.715 214.377 131.426 213.772 130.777 213.13C130.136 212.495 129.235 211.918 128.285 211.426C127.343 210.938 126.389 210.552 125.667 210.287C125.306 210.155 125.006 210.054 124.797 209.987C124.693 209.953 124.611 209.927 124.556 209.91C124.529 209.902 124.508 209.896 124.494 209.892L124.494 209.892ZM119.418 211.834C120.081 213.114 120.623 214.241 121.064 215.223C120.751 215.904 120.464 216.492 120.243 216.933C120.107 217.206 119.996 217.423 119.919 217.57C119.881 217.644 119.851 217.701 119.831 217.739L119.808 217.782L119.803 217.792L119.801 217.794L119.801 217.795C119.107 219.09 118.475 220.188 117.91 221.114C117.214 221.159 116.605 221.184 116.142 221.198C115.849 221.207 115.615 221.212 115.454 221.214C115.374 221.215 115.313 221.216 115.271 221.216L115.225 221.216L115.214 221.216L115.211 221.216H115.21C113.522 221.216 112.11 221.159 110.943 221.074C110.82 220.872 110.695 220.665 110.569 220.454C109.655 218.916 108.687 217.137 107.817 215.228C107.924 214.988 108.035 214.744 108.15 214.495C108.94 212.788 109.912 210.888 111.056 209.017C111.433 208.985 111.825 208.955 112.231 208.93C113.901 208.823 115.786 208.78 117.733 208.876L117.736 208.88C118.242 209.71 118.664 210.45 118.959 210.983C119.106 211.249 119.222 211.463 119.3 211.61C119.339 211.683 119.369 211.74 119.389 211.778L119.411 211.82L119.417 211.831L119.418 211.834ZM120.949 218.474C120.949 218.474 120.949 218.474 120.375 218.134L120.949 218.474C120.451 219.404 119.982 220.237 119.546 220.981C120.66 220.87 121.853 220.709 122.964 220.474L122.964 220.47C122.949 220.396 122.924 220.279 122.883 220.116C122.802 219.789 122.659 219.28 122.415 218.572C122.249 218.092 122.036 217.521 121.765 216.854C121.635 217.124 121.515 217.367 121.41 217.577C121.27 217.857 121.155 218.08 121.075 218.234C121.036 218.31 121.004 218.37 120.983 218.411L120.958 218.457L120.952 218.469L120.949 218.474ZM116.18 222.582C116.418 222.575 116.693 222.565 116.999 222.551C116.605 223.146 116.258 223.638 115.959 224.041C115.518 224.635 115.183 225.033 114.963 225.279C114.853 225.401 114.772 225.486 114.72 225.538C114.695 225.564 114.676 225.581 114.666 225.591L114.656 225.601L114.655 225.601L114.655 225.602L114.646 225.609L114.636 225.619C114.518 225.735 114.401 225.849 114.285 225.959C114.226 225.888 114.166 225.816 114.106 225.743L114.093 225.727C114.082 225.712 114.064 225.688 114.04 225.657C113.992 225.594 113.921 225.501 113.83 225.378C113.647 225.132 113.382 224.769 113.058 224.306C112.714 223.816 112.303 223.213 111.852 222.517C112.831 222.569 113.947 222.6 115.21 222.6V221.908C115.21 222.6 115.21 222.6 115.21 222.6H115.212L115.229 222.6L115.28 222.6C115.324 222.6 115.388 222.599 115.472 222.598C115.638 222.596 115.879 222.591 116.18 222.582ZM120.191 230.462C119.029 230.152 117.323 229.273 115.181 226.975C115.295 226.865 115.411 226.753 115.528 226.639L115.535 226.631L115.551 226.616C115.571 226.598 115.598 226.572 115.632 226.537C115.7 226.468 115.797 226.367 115.922 226.227C116.172 225.949 116.533 225.518 116.998 224.893C117.453 224.279 118.009 223.477 118.655 222.448C120.034 222.341 121.67 222.157 123.196 221.837C123.81 225.845 123.497 228.031 123.069 229.188C122.837 229.817 122.571 230.141 122.4 230.301C122.313 230.381 122.245 230.424 122.209 230.444C122.199 230.45 122.191 230.453 122.187 230.456L122.155 230.465L122.114 230.486L122.109 230.488C122.098 230.493 122.075 230.502 122.04 230.513C121.971 230.536 121.854 230.567 121.694 230.589C121.374 230.633 120.868 230.642 120.191 230.462ZM113.102 226.639C113.167 226.719 113.231 226.797 113.296 226.873C110.637 229.236 108.846 230.04 107.746 230.262C107.115 230.389 106.713 230.325 106.493 230.257C106.382 230.223 106.311 230.185 106.276 230.164C106.266 230.158 106.259 230.153 106.255 230.15L106.23 230.127L106.192 230.101L106.187 230.098C106.178 230.09 106.158 230.075 106.131 230.05C106.076 230 105.989 229.913 105.886 229.782C105.68 229.52 105.404 229.074 105.19 228.377C104.802 227.112 104.604 224.97 105.467 221.536C105.57 221.572 105.674 221.607 105.78 221.642C105.787 221.645 105.797 221.648 105.81 221.653C105.835 221.661 105.87 221.673 105.915 221.687C106.005 221.716 106.137 221.755 106.314 221.801C106.668 221.893 107.203 222.013 107.949 222.131C108.553 222.227 109.295 222.322 110.193 222.401C110.879 223.498 111.505 224.425 111.997 225.127C112.33 225.602 112.602 225.975 112.792 226.23C112.886 226.358 112.961 226.456 113.012 226.523C113.037 226.556 113.057 226.582 113.07 226.599L113.086 226.619L113.09 226.625L113.092 226.627C113.092 226.627 113.092 226.627 113.601 226.188L113.092 226.627L113.097 226.633L113.102 226.639ZM106.188 220.326C106.071 220.287 105.957 220.248 105.844 220.209C105.863 220.153 105.886 220.087 105.911 220.013C106.012 219.72 106.164 219.291 106.365 218.757C106.566 218.221 106.817 217.58 107.115 216.86C107.826 218.329 108.576 219.699 109.294 220.919C108.861 220.869 108.479 220.815 108.145 220.762C107.437 220.65 106.942 220.539 106.63 220.458C106.475 220.417 106.365 220.384 106.296 220.363C106.262 220.352 106.239 220.344 106.225 220.339L106.213 220.335L106.212 220.334L106.211 220.334L106.201 220.33L106.188 220.326ZM109.403 209.182C108.521 210.699 107.755 212.204 107.108 213.584C106.599 212.335 106.146 211.045 105.787 209.745C105.896 209.718 106.007 209.693 106.119 209.667L106.139 209.663C106.157 209.66 106.185 209.654 106.223 209.647C106.298 209.633 106.41 209.612 106.557 209.587C106.849 209.535 107.279 209.464 107.821 209.386C108.275 209.32 108.807 209.25 109.403 209.182ZM106.363 215.232C105.642 213.589 104.995 211.853 104.511 210.09C101.608 210.967 100.075 212.112 99.2667 213.03C98.793 213.568 98.5586 214.039 98.4425 214.356C98.3841 214.515 98.3549 214.637 98.3406 214.712C98.3334 214.749 98.33 214.775 98.3286 214.787L98.328 214.792L98.3256 214.841L98.3185 214.874C98.3181 214.88 98.3176 214.889 98.3175 214.901C98.3169 214.943 98.3204 215.026 98.3464 215.145C98.3975 215.38 98.5419 215.78 98.9565 216.294C99.6884 217.203 101.26 218.466 104.599 219.756C104.62 219.695 104.644 219.623 104.673 219.541C104.778 219.237 104.934 218.796 105.14 218.248C105.442 217.445 105.851 216.41 106.363 215.232ZM105.849 208.312C105.718 208.342 105.588 208.372 105.46 208.403L105.45 208.35C105.406 208.124 105.347 207.799 105.286 207.403C105.162 206.61 105.029 205.545 104.987 204.442C104.944 203.331 104.996 202.223 105.221 201.328C105.448 200.422 105.815 199.866 106.304 199.63L106.324 199.62L106.332 199.615C106.339 199.612 106.356 199.604 106.383 199.594C106.438 199.574 106.535 199.543 106.674 199.519C106.949 199.472 107.401 199.45 108.031 199.599C109.214 199.878 111.061 200.768 113.548 203.298C112.353 204.661 111.27 206.166 110.303 207.696C109.261 207.796 108.357 207.911 107.642 208.015C107.086 208.095 106.644 208.168 106.34 208.221C106.188 208.248 106.07 208.269 105.99 208.285C105.95 208.292 105.919 208.298 105.898 208.302L105.874 208.307L105.867 208.308L105.865 208.309C105.865 208.309 105.865 208.309 105.989 208.989L105.865 208.309L105.857 208.31L105.849 208.312ZM114.473 204.286C113.582 205.308 112.753 206.417 111.988 207.559C112.042 207.555 112.097 207.551 112.151 207.548C113.577 207.457 115.169 207.41 116.834 207.456C116.108 206.353 115.294 205.223 114.473 204.286Z" fill="#76DFF7"/>
<path d="M194 57H225V86H194V57Z" fill="white"/>
<path d="M194 86H225V57H194V86ZM219.736 70.5635C220.479 70.8958 221.222 71.4094 221.416 71.7417C221.706 72.2854 221.642 72.4667 220.834 72.9802C219.704 73.7354 219.381 73.7656 218.865 73.1615C217.96 72.1344 215.765 73.0708 216.507 74.1583C216.669 74.4302 217.831 75.125 219.058 75.7292C222.352 77.3 223.482 79.2635 222.288 81.4083C221.609 82.6469 220.802 83.1906 219.123 83.5833C217.089 84.0667 214.441 83.3719 213.246 82.0427C212.794 81.5292 212.406 81.0156 212.406 80.8948C212.406 80.774 212.987 80.4115 213.666 80.1094C214.893 79.5958 214.925 79.5958 215.603 80.2302C216.992 81.5292 219.672 81.3177 219.446 79.8677C219.381 79.3844 218.735 78.901 217.089 78.0854C214.118 76.6354 213.375 75.8198 213.375 73.9469C213.375 72.2552 214.182 71.0771 215.765 70.4125C217.121 69.8687 218.154 69.899 219.736 70.5635ZM211.76 73.0104H207.885V83.5833H204.656V73.0104H200.781V70.2917H211.76V73.0104Z" fill="#3466C8"/>
<path d="M35.0339 41.4114C35.0179 42.7169 34.9697 43.0881 34.6647 43.6896C33.7659 45.5071 32.1769 46.915 28.3087 49.3724C25.2912 51.2794 24.0232 52.2265 23.1725 53.212C22.3219 54.1592 22.1132 54.6327 22.1132 55.5926C22.1132 57.1669 23.3812 58.8692 26.3666 61.3266C27.4259 62.1969 28.4853 63.016 28.7421 63.1568L29.1754 63.4128L28.71 62.7601C28.4371 62.4017 27.8272 61.6721 27.3617 61.1218C24.9381 58.37 24.3924 56.8597 25.1468 55.1447C25.7406 53.8008 26.8802 52.7129 29.657 50.8442C33.5733 48.2076 35.4673 46.1214 36.0772 43.7408C36.3822 42.5633 36.013 40.8739 35.2907 40.1059C35.05 39.8627 35.0339 39.9395 35.0339 41.4114Z" fill="#E42F2F"/>
<path d="M39.2873 49.1164C37.1526 49.7307 34.119 50.9722 32.7868 51.7786C31.3904 52.6233 30.2348 53.7496 29.8014 54.6839C29.5285 55.2599 29.4804 55.5926 29.5285 56.4758C29.6249 57.8453 30.0101 58.6004 31.3904 60.0467C31.9522 60.6354 32.514 61.3138 32.6424 61.5442C33.0918 62.4017 32.8831 63.3872 32.0164 64.3983L31.5349 64.9615L32.3213 64.5263C34.3598 63.4128 35.4833 62.0689 35.4833 60.7634C35.4833 59.8931 35.3228 59.5731 34.0709 58.1396C33.6054 57.6149 33.0597 56.9237 32.8671 56.6038C32.3855 55.8486 32.3695 54.8119 32.835 54.0952C33.6054 52.8921 36.0451 51.2026 39.2873 49.6283C40.9244 48.822 41.2134 48.6684 40.9726 48.6684C40.8763 48.6812 40.1219 48.8732 39.2873 49.1164Z" fill="#E42F2F"/>
<path d="M43.2999 63.5408C42.995 63.6048 42.6258 63.7456 42.4974 63.848C42.2888 64.0271 42.3048 64.0271 42.7382 63.9376C45.0655 63.4384 47.3126 64.6543 47.3126 66.4333C47.3126 67.8796 45.3223 69.7867 42.4011 71.1562C41.6146 71.5273 41.0529 71.8345 41.1652 71.8345C41.4702 71.8345 44.1346 71.0538 44.9853 70.721C45.4347 70.5418 46.2372 70.145 46.799 69.8251C50.1856 67.918 50.4264 65.0767 47.3447 63.8096C46.4298 63.4384 46.1891 63.3872 45.0976 63.4C44.4074 63.4 43.6049 63.464 43.2999 63.5408Z" fill="#265EEF" fill-opacity="0.81"/>
<path d="M19.8019 63.976C18.245 64.2063 15.4041 64.9487 14.3287 65.4094C13.7027 65.6782 13.5262 65.819 13.5262 66.075C13.5262 67.0477 18.1166 67.5597 25.9974 67.4445C31.4386 67.3805 35.1944 67.0605 38.0354 66.4461C38.7576 66.2926 40.6998 65.3838 40.0898 65.4862C39.3997 65.6142 34.9537 66.0622 33.1881 66.203C27.8112 66.6125 20.1229 66.5997 18.2771 66.1646C16.3832 65.7294 17.282 65.0383 20.9094 64.1423C22.1453 63.8352 22.2577 63.784 21.7119 63.7968C21.3588 63.7968 20.4921 63.8736 19.8019 63.976Z" fill="#265EEF" fill-opacity="0.81"/>
<path d="M19.3043 69.1979C16.2066 70.3626 18.1166 71.6425 23.638 72.0905C26.1258 72.2953 30.6681 72.1801 33.4288 71.8473C35.4994 71.5913 38.2119 71.1306 38.5329 70.977C38.6132 70.9386 38.4045 70.785 38.0675 70.6442C37.7304 70.5162 37.281 70.2858 37.0884 70.145C36.7513 69.8891 36.7353 69.8891 34.6808 70.1578C31.3262 70.593 28.8544 70.721 25.8048 70.6314C20.6686 70.4906 19.3204 70.1578 20.0908 69.2107C20.4118 68.8139 20.3155 68.8139 19.3043 69.1979Z" fill="#265EEF" fill-opacity="0.81"/>
<path d="M20.7168 73.9335C17.1375 75.2646 21.4712 77.0821 28.2445 77.0821C31.4065 77.0821 34.7932 76.6213 37.2328 75.8406L37.8267 75.6486L36.3661 75.0726L34.8895 74.5095L33.4449 74.7015C29.7854 75.1878 27.2815 75.239 23.7183 74.8807C21.8082 74.6887 21.1341 74.3943 21.4712 73.8823C21.6798 73.5624 21.728 73.5624 20.7168 73.9335Z" fill="#265EEF" fill-opacity="0.81"/>
<path d="M13.6064 77.0949C10.9741 77.6452 8.79123 78.7459 9.01593 79.4243C9.24064 80.1666 12.6755 80.7042 20.0908 81.1777C22.7231 81.3441 30.5879 81.3441 33.1078 81.1777C39.833 80.7298 45.5631 79.5907 46.7669 78.4516C47.2484 77.9908 47.2484 77.8372 46.7669 77.4788L46.3977 77.1973L46.478 77.53C46.8632 79.1299 39.3515 80.1922 27.4099 80.205C20.3476 80.2178 16.4794 79.949 13.8311 79.2451C12.531 78.9123 12.1939 78.7075 12.4026 78.4004C12.6915 78.0164 14.5855 77.338 16.1103 77.0821L17.5388 76.8389H16.1745C15.3238 76.8389 14.3608 76.9413 13.6064 77.0949Z" fill="#265EEF" fill-opacity="0.81"/>
<path d="M49.2386 79.7059C47.9225 80.9729 40.78 82.304 33.0276 82.7264C29.4804 82.9184 21.8403 82.8032 18.9994 82.5344C17.8598 82.4192 16.8967 82.3424 16.8646 82.3808C16.7523 82.4704 18.7105 82.8288 20.3476 83.0208C27.9556 83.9039 39.9775 83.4303 45.226 82.0609C47.4731 81.4721 49.1905 80.5506 49.4312 79.7954C49.5436 79.4627 49.5115 79.4499 49.2386 79.7059Z" fill="#265EEF" fill-opacity="0.81"/>
<path d="M125.905 0.0551073C125.847 0.0964377 125.879 0.165322 126.028 0.316867C126.138 0.427081 126.306 0.654399 126.396 0.826609C126.545 1.09526 126.57 1.21236 126.57 1.68766C126.57 2.16985 126.538 2.30762 126.344 2.75536C126.06 3.42354 126.041 3.9815 126.28 4.54635L126.441 4.92521L126.48 4.30526C126.532 3.34777 126.7 3.07912 127.921 1.97697C128.321 1.61189 128.347 1.50856 128.16 1.0677C127.901 0.447747 127.145 0 126.39 0C126.17 0 125.95 0.0275536 125.905 0.0551073Z" fill="#E0234E"/>
<path d="M129.154 0.743945C129.038 1.53611 128.799 1.88742 127.862 2.62448C126.945 3.34087 126.7 3.89884 126.842 4.93899C126.881 5.23519 126.906 5.48317 126.9 5.49695C126.887 5.50384 126.667 5.4074 126.396 5.27652C123.16 3.70596 118.076 3.58886 115.195 5.02854C114.388 5.42806 113.948 5.78626 112.818 6.9504C111.293 8.52096 110.654 8.93426 109.388 9.12025C108.626 9.23046 108.251 9.40267 107.799 9.83664C107.043 10.5599 106.804 11.4348 107.166 12.1994C107.295 12.4749 107.695 12.8882 107.999 13.0535C108.148 13.1362 108.251 13.2877 108.387 13.6115C108.619 14.1626 109.117 14.7274 109.549 14.9478L109.872 15.1063V15.5954C109.872 16.174 109.937 16.3324 110.098 16.1878C110.163 16.1327 110.324 15.9122 110.46 15.6918C110.602 15.4714 110.725 15.2923 110.731 15.2923C110.744 15.2923 110.738 15.5954 110.725 15.9604C110.706 16.7388 110.757 16.911 110.97 16.7044C111.042 16.6355 111.268 16.3393 111.461 16.0431L111.823 15.5127L112.346 15.4231C112.676 15.3611 113.393 15.3267 114.233 15.3267C115.731 15.3267 116.338 15.4231 117.488 15.8571C120.111 16.8422 122.378 19.198 123.405 22.0085C123.638 22.6491 123.954 23.9854 123.954 24.3505V24.5572L123.819 24.3161C123.534 23.8201 122.863 23.3517 122.423 23.3517C122.23 23.3517 122.197 23.3861 121.92 23.9648C121.668 24.4883 120.989 25.4182 120.867 25.4182C120.841 25.4182 120.815 25.0738 120.808 24.6467C120.802 24.2265 120.77 23.8546 120.737 23.8201C120.705 23.7857 120.647 23.889 120.602 24.0543C120.492 24.447 120.079 25.308 119.82 25.68C119.62 25.9762 119.62 25.9762 119.316 25.928C118.606 25.8178 117.953 25.432 117.65 24.936C117.437 24.5916 117.411 24.0957 117.585 23.5446C117.74 23.0624 117.682 22.7111 117.411 22.4975C117.256 22.3804 117.133 22.3529 116.7 22.3529C116.048 22.3598 115.68 22.5251 115.195 23.0417C114.659 23.6135 114.62 23.7237 114.62 24.7638C114.62 25.5284 114.646 25.7282 114.769 26.1071C114.982 26.727 115.318 27.2988 115.757 27.7672L116.132 28.1667L115.925 28.208C115.473 28.3045 115.04 28.456 115.04 28.518C115.04 28.6076 115.789 29.0071 116.384 29.2344C118.347 29.9852 120.77 29.8406 122.708 28.8555C124.678 27.8567 126.402 25.5078 126.952 23.0831C127.12 22.3391 127.139 22.3667 127.255 23.4895C127.423 25.1565 126.99 27.1885 126.131 28.7109C125.576 29.6959 124.723 30.7016 123.98 31.2458L123.612 31.5145L123.896 31.5351C124.284 31.5696 125.201 31.3285 126.532 30.8532C127.152 30.6327 127.669 30.4537 127.675 30.4674C127.707 30.5019 127.094 31.2596 126.525 31.8796C125.401 33.1126 124.277 34.0081 122.888 34.7796L122.501 35L122.953 34.9587C123.205 34.9311 123.754 34.8416 124.18 34.752C127.811 33.9805 130.711 31.9002 132.881 28.4836C133.101 28.1391 133.295 27.8361 133.321 27.8085C133.347 27.7741 133.269 28.1943 133.146 28.7384C132.823 30.1988 132.449 31.1356 131.615 32.6097C131.383 33.023 131.196 33.3743 131.208 33.3812C131.221 33.395 131.447 33.2297 131.719 33.0093C134.348 30.9014 135.937 28.3871 136.719 25.0876C136.841 24.5778 136.938 24.0888 136.938 23.9923C136.938 23.5997 137.061 23.9579 137.171 24.6743C137.255 25.2254 137.287 25.8246 137.287 26.7408V28.0289L137.532 27.6707C137.907 27.1128 138.514 25.9349 138.831 25.1427C139.619 23.1795 139.994 21.2163 140 19.0464C140 16.05 139.257 13.2464 137.707 10.3808C137.177 9.40956 135.698 7.21905 135.459 7.0675C135.42 7.03995 135.375 7.13639 135.356 7.28104C135.123 8.80338 134.542 10.002 133.527 11.0352C132.72 11.8549 131.758 12.3922 130.659 12.6333C130.059 12.7642 128.993 12.7711 128.392 12.6471C127.933 12.5507 127.765 12.468 128.03 12.468C128.121 12.468 128.437 12.3991 128.734 12.3234C130.556 11.8343 131.925 10.6633 132.655 8.98248C133.695 6.57154 133.146 3.6233 131.318 1.84609C130.834 1.37079 130.065 0.847271 129.529 0.626842L129.193 0.489074L129.154 0.743945Z" fill="#E0234E"/>
</svg>
